<svg id="svg" version="1.1" xmlns="http://www.w3.org/2000/svg" xmlns:xlink="http://www.w3.org/1999/xlink" width="400" height="182.58426966292134" viewBox="0, 0, 400,182.58426966292134"><g id="svgg"><path id="path0" d="M205.297 25.609 C 204.845 25.681,203.449 25.872,202.195 26.033 C 200.941 26.195,199.821 26.405,199.707 26.500 C 199.592 26.595,199.373 26.625,199.220 26.566 C 199.066 26.507,198.889 26.543,198.825 26.646 C 198.762 26.749,198.597 26.790,198.460 26.738 C 198.323 26.685,198.158 26.726,198.095 26.829 C 198.031 26.932,197.867 26.973,197.730 26.920 C 197.592 26.868,197.428 26.909,197.364 27.012 C 197.301 27.114,197.136 27.156,196.999 27.103 C 196.862 27.050,196.697 27.091,196.634 27.194 C 196.570 27.297,196.397 27.335,196.250 27.278 C 196.102 27.222,195.982 27.275,195.982 27.397 C 195.982 27.519,195.859 27.572,195.708 27.514 C 195.557 27.456,195.434 27.497,195.434 27.605 C 195.434 27.713,195.311 27.754,195.160 27.697 C 195.009 27.639,194.886 27.680,194.886 27.788 C 194.886 27.896,194.763 27.937,194.612 27.879 C 194.461 27.821,194.338 27.862,194.338 27.970 C 194.338 28.079,194.215 28.120,194.064 28.062 C 193.913 28.004,193.790 28.043,193.790 28.149 C 193.790 28.254,193.688 28.307,193.563 28.265 C 193.439 28.224,193.223 28.304,193.083 28.443 C 192.944 28.583,192.722 28.656,192.591 28.605 C 192.460 28.555,192.327 28.579,192.295 28.659 C 192.263 28.739,191.441 29.152,190.467 29.577 C 187.409 30.912,184.170 32.967,181.618 35.190 C 180.901 35.815,180.257 36.269,180.187 36.199 C 180.118 36.130,180.082 36.155,180.108 36.256 C 180.166 36.479,177.868 38.828,177.658 38.761 C 177.575 38.734,177.555 38.789,177.612 38.883 C 177.670 38.977,177.465 39.266,177.155 39.527 C 176.846 39.787,176.647 40.000,176.712 40.000 C 176.778 40.000,176.470 40.432,176.027 40.959 C 175.585 41.486,174.948 42.308,174.612 42.785 C 174.277 43.263,173.920 43.653,173.820 43.653 C 173.720 43.653,173.685 43.700,173.743 43.758 C 173.800 43.815,173.474 44.494,173.017 45.265 C 172.169 46.696,170.465 50.318,170.060 51.553 C 169.936 51.929,169.761 52.237,169.672 52.237 C 169.582 52.237,169.556 52.361,169.614 52.511 C 169.672 52.662,169.631 52.785,169.523 52.785 C 169.415 52.785,169.374 52.909,169.432 53.059 C 169.489 53.210,169.441 53.333,169.324 53.333 C 169.207 53.333,169.152 53.400,169.202 53.481 C 169.328 53.684,168.940 55.160,168.762 55.160 C 168.683 55.160,168.662 55.324,168.714 55.525 C 168.767 55.726,168.726 55.890,168.623 55.890 C 168.520 55.890,168.479 56.055,168.532 56.256 C 168.587 56.469,168.537 56.621,168.411 56.621 C 168.281 56.621,168.239 56.761,168.306 56.971 C 168.367 57.163,168.339 57.369,168.244 57.428 C 168.149 57.487,168.111 57.690,168.161 57.879 C 168.210 58.069,168.169 58.274,168.070 58.336 C 167.970 58.397,167.929 58.603,167.978 58.792 C 168.028 58.982,167.982 59.190,167.876 59.256 C 167.770 59.321,167.730 59.608,167.787 59.894 C 167.844 60.179,167.806 60.465,167.702 60.529 C 167.598 60.593,167.557 60.921,167.612 61.259 C 167.667 61.596,167.630 61.922,167.530 61.984 C 167.423 62.050,167.386 62.579,167.441 63.261 C 167.502 64.021,167.463 64.469,167.329 64.552 C 167.047 64.726,167.045 68.493,167.327 68.493 C 167.463 68.493,167.506 68.911,167.458 69.772 C 167.418 70.475,167.458 71.050,167.547 71.050 C 167.637 71.050,167.678 71.379,167.640 71.781 C 167.602 72.183,167.623 72.511,167.687 72.511 C 167.751 72.511,167.857 72.962,167.921 73.513 C 167.986 74.063,168.127 74.926,168.236 75.430 L 168.432 76.347 175.147 76.347 L 181.862 76.347 182.082 77.945 C 182.677 82.281,185.263 91.142,185.933 91.142 C 186.014 91.142,186.131 91.347,186.194 91.598 C 186.284 91.959,186.424 92.055,186.859 92.055 C 187.358 92.055,187.391 92.019,187.210 91.681 C 185.088 87.716,183.206 77.770,183.202 70.502 C 183.194 55.476,188.524 44.355,198.103 39.407 C 199.854 38.503,202.466 37.547,202.734 37.713 C 202.824 37.769,202.944 37.738,203.001 37.646 C 203.059 37.553,203.270 37.520,203.471 37.573 C 203.671 37.625,203.836 37.597,203.837 37.510 C 203.838 37.423,204.227 37.334,204.703 37.311 C 205.178 37.289,205.596 37.184,205.632 37.078 C 205.671 36.959,205.944 36.931,206.338 37.005 C 206.792 37.090,207.028 37.052,207.140 36.873 C 207.266 36.676,207.301 36.673,207.303 36.860 C 207.305 36.996,207.398 37.042,207.520 36.967 C 207.639 36.894,208.214 36.854,208.799 36.877 C 209.460 36.904,209.863 36.847,209.863 36.725 C 209.863 36.618,210.068 36.530,210.320 36.530 C 210.571 36.530,210.776 36.604,210.776 36.695 C 210.776 36.786,210.938 36.818,211.136 36.767 C 211.334 36.715,211.736 36.756,212.029 36.859 C 212.405 36.990,212.623 36.985,212.765 36.842 C 212.914 36.693,213.127 36.696,213.562 36.853 C 213.888 36.971,214.340 37.019,214.566 36.960 C 214.814 36.895,214.977 36.935,214.977 37.060 C 214.977 37.190,215.147 37.224,215.434 37.153 C 215.727 37.079,215.890 37.115,215.890 37.253 C 215.890 37.381,216.031 37.423,216.240 37.356 C 216.433 37.295,216.647 37.337,216.715 37.448 C 216.784 37.559,216.953 37.607,217.090 37.555 C 217.228 37.502,217.392 37.543,217.456 37.646 C 217.519 37.749,217.686 37.789,217.827 37.735 C 217.967 37.681,218.082 37.720,218.082 37.822 C 218.082 37.924,218.185 37.990,218.311 37.970 C 218.436 37.949,218.785 38.035,219.087 38.160 C 219.388 38.285,220.128 38.575,220.731 38.804 C 221.784 39.203,224.213 40.402,225.936 41.373 C 226.388 41.628,226.963 41.814,227.215 41.786 L 227.671 41.735 227.671 34.977 L 227.671 28.219 227.260 28.161 C 227.034 28.129,226.849 28.029,226.849 27.938 C 226.849 27.848,226.734 27.818,226.594 27.872 C 226.453 27.926,226.286 27.886,226.223 27.783 C 226.159 27.680,225.986 27.642,225.839 27.699 C 225.691 27.755,225.571 27.702,225.571 27.580 C 225.571 27.450,225.447 27.405,225.274 27.472 C 225.110 27.535,224.867 27.496,224.734 27.385 C 224.600 27.274,224.411 27.233,224.313 27.293 C 224.215 27.354,224.082 27.318,224.018 27.215 C 223.954 27.111,223.822 27.076,223.724 27.136 C 223.626 27.197,223.430 27.150,223.288 27.032 C 223.146 26.914,222.940 26.873,222.831 26.941 C 222.722 27.008,222.524 26.974,222.392 26.864 C 222.260 26.754,221.832 26.636,221.441 26.602 C 221.050 26.568,220.607 26.494,220.457 26.436 C 220.306 26.379,220.059 26.325,219.909 26.317 C 219.758 26.309,218.731 26.174,217.626 26.017 C 215.382 25.699,206.573 25.408,205.297 25.609 M271.598 25.608 C 271.146 25.679,269.754 25.867,268.504 26.026 C 267.254 26.185,266.134 26.396,266.015 26.494 C 265.897 26.592,265.666 26.622,265.503 26.559 C 265.332 26.494,265.205 26.536,265.205 26.659 C 265.205 26.791,265.064 26.829,264.840 26.758 C 264.621 26.689,264.475 26.725,264.475 26.849 C 264.475 26.973,264.328 27.010,264.110 26.941 C 263.886 26.870,263.744 26.908,263.744 27.039 C 263.744 27.157,263.629 27.209,263.488 27.155 C 263.347 27.101,263.176 27.113,263.108 27.182 C 263.039 27.250,262.928 27.313,262.861 27.321 C 262.795 27.330,262.502 27.435,262.212 27.555 C 261.922 27.675,261.645 27.733,261.597 27.685 C 261.549 27.637,261.386 27.720,261.236 27.871 C 261.085 28.021,260.870 28.113,260.757 28.076 C 260.644 28.038,260.437 28.121,260.298 28.261 C 260.158 28.400,259.937 28.473,259.806 28.423 C 259.674 28.372,259.541 28.392,259.510 28.468 C 259.478 28.543,258.795 28.956,257.991 29.387 C 255.751 30.588,254.270 31.635,252.970 32.936 C 252.319 33.589,251.710 34.077,251.618 34.020 C 251.526 33.963,251.507 34.007,251.576 34.119 C 251.645 34.230,251.323 34.835,250.860 35.464 C 250.169 36.403,248.574 39.343,248.474 39.863 C 248.459 39.938,248.427 40.041,248.402 40.091 C 248.377 40.142,248.345 40.244,248.331 40.320 C 248.316 40.395,248.249 40.545,248.180 40.652 C 248.031 40.886,247.824 41.776,247.801 42.283 C 247.792 42.484,247.721 42.692,247.644 42.746 C 247.363 42.941,247.067 50.958,247.341 50.959 C 247.410 50.959,247.492 51.267,247.523 51.644 L 247.580 52.329 251.826 52.378 L 256.073 52.427 256.085 53.017 C 256.093 53.403,256.241 53.037,256.513 51.963 C 258.114 45.629,263.078 39.594,267.739 38.315 C 268.103 38.215,269.105 37.899,269.964 37.611 C 271.936 36.952,276.511 36.436,277.443 36.768 C 277.594 36.822,278.169 36.917,278.721 36.979 C 281.420 37.283,284.562 38.188,287.094 39.389 C 288.747 40.174,288.695 40.154,289.452 40.296 L 290.046 40.407 290.046 34.346 C 290.046 28.172,289.994 27.688,289.359 27.900 C 289.234 27.942,289.132 27.894,289.132 27.795 C 289.132 27.695,288.968 27.657,288.767 27.710 C 288.566 27.762,288.402 27.716,288.402 27.607 C 288.402 27.498,288.279 27.456,288.128 27.514 C 287.977 27.572,287.854 27.522,287.854 27.404 C 287.854 27.273,287.712 27.235,287.489 27.306 C 287.270 27.375,287.123 27.339,287.123 27.215 C 287.123 27.090,286.977 27.054,286.758 27.123 C 286.534 27.194,286.393 27.156,286.393 27.025 C 286.393 26.902,286.266 26.859,286.096 26.924 C 285.932 26.987,285.694 26.952,285.567 26.846 C 285.439 26.740,285.265 26.670,285.179 26.689 C 285.093 26.709,284.875 26.660,284.695 26.582 C 284.515 26.503,284.317 26.489,284.256 26.551 C 284.194 26.613,284.053 26.591,283.944 26.502 C 283.268 25.957,273.766 25.269,271.598 25.608 M56.073 25.780 C 55.219 25.868,54.110 26.024,53.607 26.128 C 53.105 26.231,52.571 26.324,52.420 26.334 C 52.269 26.343,52.054 26.424,51.941 26.512 C 51.828 26.601,51.610 26.625,51.457 26.566 C 51.304 26.507,51.122 26.550,51.053 26.662 C 50.984 26.773,50.771 26.814,50.578 26.753 C 50.374 26.688,50.228 26.728,50.228 26.849 C 50.228 26.973,50.082 27.010,49.863 26.941 C 49.639 26.870,49.498 26.908,49.498 27.039 C 49.498 27.157,49.377 27.207,49.230 27.151 C 49.082 27.094,48.909 27.132,48.846 27.235 C 48.782 27.338,48.615 27.378,48.475 27.324 C 48.334 27.270,48.219 27.314,48.219 27.423 C 48.219 27.531,48.099 27.573,47.951 27.516 C 47.804 27.460,47.631 27.497,47.567 27.600 C 47.504 27.703,47.337 27.743,47.196 27.689 C 47.056 27.635,46.941 27.653,46.941 27.729 C 46.941 27.895,45.275 28.532,45.155 28.412 C 45.109 28.366,44.947 28.452,44.795 28.604 C 44.643 28.755,44.412 28.838,44.280 28.788 C 44.149 28.738,44.016 28.759,43.984 28.835 C 43.953 28.911,42.982 29.427,41.826 29.981 C 40.671 30.536,39.117 31.370,38.373 31.835 C 37.628 32.299,36.930 32.628,36.820 32.566 C 36.711 32.504,36.680 32.518,36.752 32.598 C 36.824 32.678,36.495 33.035,36.022 33.392 C 34.378 34.629,31.852 36.867,30.595 38.199 C 29.900 38.936,29.403 39.416,29.490 39.267 C 29.584 39.105,29.581 39.057,29.481 39.148 C 29.390 39.231,29.315 39.359,29.315 39.430 C 29.315 39.502,28.730 40.297,28.014 41.196 C 25.881 43.877,24.453 46.291,22.935 49.782 C 22.610 50.530,22.310 51.107,22.268 51.066 C 22.226 51.024,22.179 51.206,22.163 51.471 C 22.147 51.736,22.049 51.981,21.945 52.015 C 21.841 52.050,21.801 52.196,21.856 52.341 C 21.912 52.485,21.886 52.603,21.800 52.603 C 21.714 52.603,21.631 52.826,21.615 53.100 C 21.599 53.373,21.501 53.624,21.397 53.659 C 21.293 53.694,21.253 53.840,21.308 53.984 C 21.364 54.129,21.321 54.247,21.212 54.247 C 21.104 54.247,21.058 54.356,21.109 54.489 C 21.160 54.622,21.103 54.972,20.983 55.265 C 20.862 55.559,20.779 55.896,20.797 56.014 C 20.816 56.132,20.755 56.276,20.661 56.333 C 20.568 56.391,20.534 56.603,20.586 56.804 C 20.639 57.005,20.593 57.169,20.484 57.169 C 20.375 57.169,20.337 57.304,20.401 57.469 C 20.471 57.653,20.385 57.866,20.177 58.017 C 19.991 58.153,19.937 58.265,20.056 58.265 C 20.176 58.265,20.274 58.429,20.274 58.630 C 20.274 58.831,20.206 58.995,20.123 58.995 C 20.040 58.995,20.008 59.242,20.052 59.543 C 20.098 59.856,20.050 60.091,19.941 60.091 C 19.825 60.091,19.789 60.335,19.849 60.707 C 19.904 61.046,19.870 61.373,19.772 61.433 C 19.675 61.492,19.636 61.955,19.684 62.460 C 19.733 62.966,19.700 63.379,19.612 63.379 C 19.427 63.379,19.453 69.337,19.640 69.817 C 19.709 69.992,19.733 70.465,19.695 70.867 C 19.656 71.269,19.697 71.598,19.786 71.598 C 19.875 71.598,19.916 71.926,19.878 72.327 C 19.839 72.728,19.857 73.077,19.917 73.103 C 19.977 73.129,20.144 73.849,20.287 74.703 L 20.548 76.256 27.252 76.304 L 33.957 76.352 34.053 76.943 C 35.383 85.110,37.667 92.055,39.024 92.055 C 39.400 92.055,39.464 91.992,39.353 91.735 C 32.304 75.414,34.673 53.496,44.552 43.643 C 47.532 40.671,53.889 37.045,54.960 37.706 C 55.056 37.766,55.184 37.734,55.244 37.637 C 55.305 37.539,55.467 37.502,55.604 37.555 C 55.741 37.607,55.906 37.566,55.969 37.463 C 56.033 37.360,56.201 37.321,56.344 37.376 C 56.487 37.431,56.710 37.409,56.841 37.328 C 56.971 37.247,57.255 37.203,57.471 37.231 C 57.688 37.259,57.917 37.197,57.981 37.094 C 58.044 36.991,58.340 36.956,58.637 37.015 C 59.026 37.093,59.179 37.053,59.181 36.872 C 59.183 36.673,59.224 36.678,59.377 36.895 C 59.499 37.067,59.602 37.095,59.653 36.972 C 59.704 36.850,60.116 36.806,60.735 36.857 C 61.348 36.908,61.834 36.858,61.992 36.727 C 62.181 36.570,62.558 36.561,63.408 36.694 C 64.045 36.794,64.895 36.876,65.297 36.878 C 66.795 36.884,67.032 36.914,67.032 37.099 C 67.032 37.215,67.245 37.242,67.580 37.169 C 67.948 37.088,68.128 37.120,68.128 37.265 C 68.128 37.385,68.253 37.434,68.409 37.374 C 68.564 37.315,68.831 37.347,69.003 37.445 C 69.174 37.543,70.137 37.880,71.142 38.193 C 72.935 38.752,75.463 39.888,77.803 41.186 C 79.862 42.328,79.718 42.759,79.777 35.251 C 79.835 27.807,79.860 28.051,79.050 27.995 C 78.720 27.972,78.425 27.878,78.394 27.786 C 78.364 27.694,78.178 27.661,77.982 27.712 C 77.772 27.767,77.626 27.713,77.626 27.582 C 77.626 27.459,77.505 27.404,77.357 27.461 C 77.210 27.518,77.037 27.480,76.974 27.377 C 76.910 27.274,76.740 27.235,76.596 27.290 C 76.451 27.346,76.286 27.267,76.227 27.116 C 76.143 26.896,76.068 26.885,75.855 27.061 C 75.645 27.235,75.557 27.232,75.440 27.042 C 75.359 26.910,75.197 26.861,75.081 26.933 C 74.965 27.005,74.754 26.967,74.612 26.849 C 74.470 26.732,74.268 26.688,74.163 26.753 C 74.058 26.818,73.870 26.805,73.744 26.724 C 73.619 26.644,73.352 26.560,73.151 26.538 C 72.950 26.516,72.110 26.377,71.285 26.229 C 67.869 25.614,59.947 25.380,56.073 25.780 M317.306 27.170 L 304.292 27.217 304.292 27.833 C 304.292 28.187,304.422 28.555,304.598 28.699 C 305.251 29.235,306.470 31.097,306.998 32.367 C 308.260 35.404,308.281 35.831,308.298 60.046 L 308.311 76.712 316.519 76.712 C 321.374 76.712,324.770 76.782,324.832 76.882 C 324.890 76.975,324.990 80.140,325.055 83.914 L 325.173 90.776 325.904 90.776 L 326.635 90.776 326.537 77.489 C 326.391 57.623,326.626 36.214,327.005 34.750 C 327.448 33.042,328.293 31.319,329.421 29.820 C 330.286 28.671,330.423 28.380,330.375 27.801 L 330.320 27.123 317.306 27.170 M90.594 27.926 C 90.594 28.372,90.690 28.674,90.853 28.736 C 91.484 28.979,93.915 32.880,93.746 33.379 C 93.703 33.505,93.766 33.607,93.886 33.607 C 94.005 33.607,94.057 33.728,94.000 33.875 C 93.944 34.023,93.981 34.196,94.084 34.259 C 94.187 34.323,94.228 34.487,94.176 34.624 C 94.123 34.762,94.165 34.927,94.269 34.991 C 94.374 35.056,94.410 35.305,94.349 35.545 C 94.289 35.785,94.303 35.982,94.380 35.982 C 94.457 35.982,94.495 44.797,94.464 55.571 C 94.432 66.345,94.459 75.674,94.524 76.301 L 94.641 77.443 103.006 77.443 L 111.371 77.443 111.467 81.416 C 111.604 87.096,112.613 91.328,113.865 91.475 C 114.283 91.524,114.354 91.476,114.270 91.201 C 113.532 88.760,112.909 85.478,112.856 83.744 C 112.789 81.551,112.819 73.142,112.957 55.160 C 113.132 32.320,112.985 33.629,115.819 29.729 C 116.486 28.811,116.712 28.336,116.712 27.857 L 116.712 27.215 103.653 27.215 L 90.594 27.215 90.594 27.926 M19.909 123.836 L 19.909 124.933 36.210 124.887 L 52.511 124.840 52.511 123.836 L 52.511 122.831 36.210 122.784 L 19.909 122.738 19.909 123.836 M348.493 123.836 L 348.493 124.932 364.749 124.932 L 381.005 124.932 381.005 123.836 L 381.005 122.740 364.749 122.740 L 348.493 122.740 348.493 123.836 M19.909 156.256 L 19.909 157.260 200.457 157.260 L 381.005 157.260 381.005 156.256 L 381.005 155.251 200.457 155.251 L 19.909 155.251 19.909 156.256 " stroke="none" fill="#c25d5c" fill-rule="evenodd"></path><path id="path1" d="M59.954 25.524 C 60.833 25.558,62.272 25.558,63.151 25.524 C 64.030 25.491,63.311 25.463,61.553 25.463 C 59.795 25.463,59.075 25.491,59.954 25.524 M207.909 25.524 C 208.792 25.558,210.190 25.558,211.014 25.524 C 211.837 25.490,211.114 25.463,209.406 25.463 C 207.699 25.463,207.025 25.491,207.909 25.524 M272.831 25.517 C 273.057 25.561,273.427 25.561,273.653 25.517 C 273.879 25.473,273.694 25.438,273.242 25.438 C 272.790 25.438,272.605 25.473,272.831 25.517 M275.391 25.520 C 275.720 25.561,276.213 25.560,276.487 25.519 C 276.762 25.477,276.493 25.444,275.890 25.445 C 275.288 25.446,275.063 25.480,275.391 25.520 M56.304 25.702 C 56.582 25.744,56.992 25.743,57.217 25.699 C 57.442 25.656,57.215 25.622,56.712 25.623 C 56.210 25.624,56.026 25.660,56.304 25.702 M66.442 25.703 C 66.770 25.744,67.263 25.743,67.538 25.701 C 67.812 25.660,67.543 25.626,66.941 25.627 C 66.338 25.628,66.113 25.662,66.442 25.703 M204.155 25.700 C 204.381 25.743,204.751 25.743,204.977 25.700 C 205.203 25.656,205.018 25.621,204.566 25.621 C 204.114 25.621,203.929 25.656,204.155 25.700 M214.201 25.703 C 214.527 25.743,215.062 25.743,215.388 25.703 C 215.715 25.662,215.447 25.629,214.795 25.629 C 214.142 25.629,213.874 25.662,214.201 25.703 M270.368 25.702 C 270.645 25.744,271.056 25.743,271.281 25.699 C 271.506 25.656,271.279 25.622,270.776 25.623 C 270.274 25.624,270.090 25.660,270.368 25.702 M278.037 25.702 C 278.313 25.743,278.765 25.743,279.041 25.702 C 279.317 25.660,279.091 25.626,278.539 25.626 C 277.986 25.626,277.760 25.660,278.037 25.702 M54.658 25.879 C 54.833 25.925,55.121 25.925,55.297 25.879 C 55.473 25.833,55.329 25.796,54.977 25.796 C 54.626 25.796,54.482 25.833,54.658 25.879 M68.815 25.883 C 69.042 25.926,69.371 25.925,69.546 25.879 C 69.720 25.833,69.534 25.797,69.132 25.799 C 68.731 25.802,68.588 25.839,68.815 25.883 M202.420 25.879 C 202.596 25.925,202.884 25.925,203.059 25.879 C 203.235 25.833,203.091 25.796,202.740 25.796 C 202.388 25.796,202.244 25.833,202.420 25.879 M216.577 25.883 C 216.805 25.926,217.133 25.925,217.308 25.879 C 217.483 25.833,217.297 25.797,216.895 25.799 C 216.493 25.802,216.350 25.839,216.577 25.883 M268.721 25.879 C 268.897 25.925,269.185 25.925,269.361 25.879 C 269.537 25.833,269.393 25.796,269.041 25.796 C 268.689 25.796,268.546 25.833,268.721 25.879 M280.228 25.879 C 280.404 25.925,280.692 25.925,280.868 25.879 C 281.043 25.833,280.900 25.796,280.548 25.796 C 280.196 25.796,280.053 25.833,280.228 25.879 M218.128 26.062 C 218.304 26.108,218.591 26.108,218.767 26.062 C 218.943 26.016,218.799 25.978,218.447 25.978 C 218.096 25.978,217.952 26.016,218.128 26.062 M51.470 26.521 C 51.641 26.691,51.738 26.691,51.909 26.521 C 52.079 26.350,52.030 26.301,51.689 26.301 C 51.349 26.301,51.300 26.350,51.470 26.521 M72.757 26.508 C 72.999 26.649,73.152 26.647,73.296 26.503 C 73.443 26.356,73.352 26.303,72.959 26.307 C 72.487 26.312,72.462 26.337,72.757 26.508 M199.233 26.521 C 199.403 26.691,199.501 26.691,199.671 26.521 C 199.842 26.350,199.793 26.301,199.452 26.301 C 199.111 26.301,199.062 26.350,199.233 26.521 M220.603 26.521 C 220.773 26.691,220.871 26.691,221.041 26.521 C 221.212 26.350,221.163 26.301,220.822 26.301 C 220.481 26.301,220.432 26.350,220.603 26.521 M74.667 26.886 C 74.837 27.056,74.935 27.056,75.105 26.886 C 75.275 26.715,75.227 26.667,74.886 26.667 C 74.545 26.667,74.496 26.715,74.667 26.886 M222.429 26.886 C 222.600 27.056,222.697 27.056,222.868 26.886 C 223.038 26.715,222.989 26.667,222.648 26.667 C 222.307 26.667,222.259 26.715,222.429 26.886 M262.466 27.177 C 261.496 27.532,261.463 27.551,261.588 27.676 C 261.641 27.729,261.922 27.675,262.212 27.555 C 262.502 27.435,262.795 27.330,262.861 27.321 C 262.928 27.313,263.039 27.250,263.108 27.182 C 263.176 27.113,263.347 27.101,263.488 27.155 C 263.629 27.209,263.744 27.163,263.744 27.052 C 263.744 26.785,263.460 26.813,262.466 27.177 M224.002 27.189 C 224.075 27.307,224.215 27.354,224.313 27.293 C 224.411 27.233,224.613 27.284,224.761 27.408 C 225.006 27.611,225.388 27.519,225.177 27.308 C 224.959 27.089,223.873 26.980,224.002 27.189 M310.927 27.169 C 314.525 27.197,320.361 27.197,323.895 27.169 C 327.428 27.141,324.484 27.118,317.352 27.118 C 310.219 27.119,307.328 27.141,310.927 27.169 M47.443 27.341 C 47.267 27.386,47.123 27.500,47.123 27.593 C 47.123 27.815,47.437 27.811,47.575 27.588 C 47.634 27.492,47.804 27.460,47.951 27.516 C 48.099 27.573,48.219 27.528,48.219 27.417 C 48.219 27.211,48.015 27.191,47.443 27.341 M76.981 27.389 C 77.041 27.485,77.210 27.518,77.357 27.461 C 77.505 27.404,77.626 27.449,77.626 27.560 C 77.626 27.672,77.749 27.763,77.900 27.763 C 78.322 27.763,78.224 27.453,77.763 27.330 C 77.159 27.168,76.859 27.191,76.981 27.389 M45.890 27.905 C 45.463 28.069,45.114 28.277,45.114 28.368 C 45.114 28.458,45.217 28.494,45.342 28.447 C 45.468 28.400,45.879 28.252,46.256 28.117 C 46.632 27.982,46.941 27.806,46.941 27.726 C 46.941 27.531,46.804 27.554,45.890 27.905 M78.356 27.721 C 78.356 27.903,79.293 28.162,79.437 28.020 C 79.558 27.900,79.396 27.801,78.858 27.666 C 78.563 27.592,78.356 27.615,78.356 27.721 M260.959 27.718 C 260.783 27.757,260.639 27.866,260.639 27.959 C 260.639 28.173,260.837 28.170,261.182 27.952 C 261.510 27.745,261.393 27.622,260.959 27.718 M226.849 27.904 C 226.849 28.004,227.055 28.125,227.306 28.173 C 227.557 28.221,227.763 28.189,227.763 28.103 C 227.763 28.016,227.687 27.945,227.595 27.945 C 227.503 27.945,227.297 27.895,227.138 27.834 C 226.979 27.773,226.849 27.805,226.849 27.904 M289.680 27.945 C 289.680 28.046,289.763 28.128,289.863 28.128 C 289.981 28.128,290.046 30.289,290.046 34.247 C 290.046 37.612,290.115 40.365,290.199 40.365 C 290.283 40.365,290.339 39.071,290.323 37.489 C 290.306 35.906,290.278 33.071,290.261 31.187 C 290.233 28.279,290.187 27.763,289.954 27.763 C 289.804 27.763,289.680 27.845,289.680 27.945 M79.726 34.903 C 79.726 38.711,79.788 41.826,79.863 41.826 C 80.042 41.826,80.042 28.175,79.863 28.065 C 79.788 28.018,79.726 31.095,79.726 34.903 M260.046 28.084 C 259.870 28.123,259.726 28.231,259.726 28.324 C 259.726 28.538,259.924 28.536,260.269 28.318 C 260.597 28.110,260.480 27.987,260.046 28.084 M192.831 28.266 C 192.655 28.305,192.511 28.413,192.511 28.507 C 192.511 28.721,192.709 28.718,193.054 28.500 C 193.382 28.293,193.265 28.170,192.831 28.266 M44.521 28.449 C 44.345 28.488,44.201 28.596,44.201 28.689 C 44.201 28.903,44.399 28.901,44.744 28.683 C 45.072 28.475,44.954 28.352,44.521 28.449 M258.699 28.742 C 254.264 31.042,251.131 33.936,249.346 37.381 C 248.701 38.626,247.847 40.796,247.865 41.146 C 247.875 41.336,248.193 40.754,248.317 40.320 C 248.339 40.244,248.377 40.142,248.402 40.091 C 248.427 40.041,248.459 39.938,248.474 39.863 C 249.095 36.637,253.513 31.776,257.991 29.393 C 259.638 28.516,259.632 28.519,259.528 28.422 C 259.486 28.384,259.113 28.527,258.699 28.742 M189.993 29.585 C 188.766 30.185,187.763 30.721,187.763 30.774 C 187.763 30.828,188.317 30.596,188.995 30.259 C 189.674 29.922,190.701 29.454,191.279 29.219 C 191.856 28.984,192.329 28.724,192.329 28.642 C 192.329 28.432,192.442 28.386,189.993 29.585 M304.904 29.226 C 305.256 29.680,305.879 30.623,306.288 31.324 C 306.697 32.024,307.032 32.528,307.032 32.443 C 307.032 32.047,305.832 30.105,305.090 29.299 L 304.263 28.402 304.904 29.226 M41.368 30.019 C 38.995 31.242,37.260 32.271,37.260 32.455 C 37.260 32.543,37.340 32.498,38.708 31.628 C 39.254 31.281,40.651 30.544,41.813 29.990 C 44.123 28.889,44.114 28.894,44.001 28.780 C 43.958 28.737,42.773 29.294,41.368 30.019 M91.738 29.995 C 92.289 30.763,92.929 31.845,93.158 32.400 C 93.388 32.955,93.642 33.368,93.723 33.318 C 94.016 33.137,91.835 29.510,91.032 28.844 C 90.870 28.709,91.187 29.226,91.738 29.995 M186.712 31.336 C 186.285 31.592,185.936 31.845,185.936 31.897 C 185.936 31.996,187.168 31.296,187.479 31.021 C 187.793 30.743,187.501 30.864,186.712 31.336 M184.632 32.632 C 182.655 33.983,181.424 34.996,179.817 36.593 L 178.174 38.228 180.183 36.435 C 181.929 34.877,183.830 33.365,185.393 32.293 C 185.641 32.122,185.792 31.978,185.728 31.973 C 185.664 31.968,185.171 32.264,184.632 32.632 M35.957 33.177 C 34.188 34.379,32.147 36.290,28.879 39.804 C 27.841 40.920,25.847 43.624,25.970 43.748 C 26.015 43.793,26.386 43.358,26.796 42.782 C 29.271 39.300,32.793 35.769,36.623 32.928 C 37.508 32.272,37.021 32.454,35.957 33.177 M307.061 32.785 C 307.060 32.886,307.171 33.256,307.306 33.607 C 307.441 33.959,307.555 34.123,307.558 33.973 C 307.561 33.822,307.451 33.452,307.313 33.151 C 307.175 32.849,307.061 32.685,307.061 32.785 M94.064 35.240 C 94.064 35.447,94.146 35.616,94.247 35.616 C 94.347 35.616,94.429 35.498,94.429 35.353 C 94.429 35.208,94.347 35.039,94.247 34.977 C 94.146 34.915,94.064 35.034,94.064 35.240 M94.247 36.621 C 94.247 36.973,94.329 37.260,94.429 37.260 C 94.530 37.260,94.612 36.973,94.612 36.621 C 94.612 36.269,94.530 35.982,94.429 35.982 C 94.329 35.982,94.247 36.269,94.247 36.621 M307.945 66.644 C 307.945 100.885,308.052 98.177,306.573 101.279 C 306.142 102.183,305.452 103.305,305.041 103.772 C 304.461 104.431,304.292 104.770,304.292 105.279 L 304.292 105.936 317.352 105.936 L 330.411 105.936 330.411 105.188 C 330.411 104.573,330.279 104.289,329.665 103.593 C 327.499 101.131,326.575 97.944,326.575 92.927 L 326.575 90.776 325.874 90.776 L 325.173 90.776 325.055 83.914 C 324.990 80.140,324.890 76.975,324.832 76.882 C 324.770 76.782,321.374 76.712,316.519 76.712 L 308.311 76.712 308.302 60.228 C 308.294 44.641,308.198 36.356,308.023 36.181 C 307.980 36.138,307.945 49.847,307.945 66.644 M62.015 36.704 C 61.937 36.829,62.259 36.895,62.942 36.895 C 64.163 36.895,64.177 36.809,62.984 36.636 C 62.455 36.559,62.088 36.585,62.015 36.704 M209.863 36.712 C 209.863 36.813,210.068 36.895,210.320 36.895 C 210.571 36.895,210.776 36.813,210.776 36.712 C 210.776 36.612,210.571 36.530,210.320 36.530 C 210.068 36.530,209.863 36.612,209.863 36.712 M64.932 36.895 C 64.864 37.005,65.096 37.077,65.514 37.075 C 66.031 37.073,66.139 37.026,65.936 36.895 C 65.579 36.664,65.074 36.664,64.932 36.895 M212.694 36.895 C 212.626 37.005,212.859 37.077,213.277 37.075 C 213.793 37.073,213.902 37.026,213.699 36.895 C 213.341 36.664,212.837 36.664,212.694 36.895 M66.484 37.078 C 66.484 37.178,66.607 37.260,66.758 37.260 C 66.909 37.260,67.032 37.178,67.032 37.078 C 67.032 36.977,66.909 36.895,66.758 36.895 C 66.607 36.895,66.484 36.977,66.484 37.078 M214.338 37.078 C 214.276 37.178,214.394 37.260,214.601 37.260 C 214.808 37.260,214.977 37.178,214.977 37.078 C 214.977 36.977,214.859 36.895,214.714 36.895 C 214.569 36.895,214.400 36.977,214.338 37.078 M67.489 37.260 C 67.426 37.361,67.545 37.443,67.752 37.443 C 67.959 37.443,68.128 37.361,68.128 37.260 C 68.128 37.160,68.009 37.078,67.865 37.078 C 67.720 37.078,67.551 37.160,67.489 37.260 M215.342 37.260 C 215.342 37.361,215.466 37.443,215.616 37.443 C 215.767 37.443,215.890 37.361,215.890 37.260 C 215.890 37.160,215.767 37.078,215.616 37.078 C 215.466 37.078,215.342 37.160,215.342 37.260 M53.185 38.116 C 52.450 38.369,51.878 38.606,51.914 38.641 C 51.990 38.717,54.797 37.866,54.940 37.724 C 55.143 37.521,54.477 37.669,53.185 38.116 M201.005 38.140 C 200.201 38.420,199.379 38.754,199.178 38.882 L 198.813 39.114 199.178 38.984 C 199.379 38.912,200.240 38.613,201.092 38.320 C 201.943 38.026,202.676 37.750,202.720 37.706 C 202.898 37.528,202.395 37.655,201.005 38.140 M218.361 37.984 C 218.285 38.107,219.555 38.588,219.666 38.477 C 219.693 38.450,219.429 38.298,219.079 38.139 C 218.729 37.980,218.406 37.910,218.361 37.984 M177.479 38.974 C 177.107 39.314,176.804 39.660,176.804 39.742 C 176.804 39.824,177.132 39.570,177.534 39.178 C 177.936 38.786,178.265 38.440,178.265 38.410 C 178.265 38.284,178.117 38.390,177.479 38.974 M266.804 38.643 C 266.527 38.793,266.301 38.956,266.301 39.006 C 266.301 39.056,266.527 38.982,266.804 38.843 C 267.080 38.703,267.429 38.543,267.580 38.487 C 267.823 38.396,267.823 38.384,267.580 38.378 C 267.429 38.374,267.080 38.493,266.804 38.643 M72.858 38.921 C 73.299 39.117,73.693 39.245,73.733 39.205 C 73.812 39.126,72.404 38.531,72.188 38.552 C 72.115 38.559,72.416 38.725,72.858 38.921 M50.183 39.374 C 49.474 39.758,49.555 39.891,50.274 39.525 C 50.962 39.175,51.084 39.084,50.852 39.094 C 50.760 39.098,50.459 39.224,50.183 39.374 M73.988 39.339 C 74.174 39.510,76.712 40.726,76.712 40.644 C 76.712 40.542,74.237 39.269,74.038 39.269 C 73.969 39.269,73.946 39.301,73.988 39.339 M264.974 39.733 C 264.599 39.987,264.292 40.235,264.292 40.283 C 264.292 40.331,264.621 40.153,265.023 39.887 C 265.661 39.465,265.876 39.269,265.704 39.269 C 265.678 39.269,265.349 39.478,264.974 39.733 M176.128 40.411 C 175.547 41.048,173.848 43.498,173.929 43.579 C 173.970 43.620,174.277 43.262,174.613 42.785 C 174.948 42.308,175.585 41.486,176.027 40.959 C 176.805 40.032,176.888 39.576,176.128 40.411 M223.777 40.259 C 223.993 40.505,226.333 41.827,226.550 41.825 C 226.664 41.825,226.553 41.715,226.301 41.582 C 226.050 41.449,225.352 41.066,224.749 40.730 C 224.146 40.393,223.709 40.182,223.777 40.259 M76.895 40.804 C 76.895 40.940,78.553 41.852,78.693 41.793 C 78.768 41.761,78.395 41.509,77.863 41.233 C 77.330 40.956,76.895 40.764,76.895 40.804 M261.543 42.511 L 260.913 43.196 261.598 42.567 C 262.236 41.981,262.367 41.826,262.228 41.826 C 262.197 41.826,261.889 42.135,261.543 42.511 M247.126 44.612 C 247.128 45.062,247.172 45.139,247.306 44.932 C 247.538 44.573,247.538 44.018,247.306 44.018 C 247.205 44.018,247.125 44.285,247.126 44.612 M172.511 45.845 C 172.356 46.146,172.269 46.393,172.319 46.393 C 172.370 46.393,172.538 46.146,172.694 45.845 C 172.850 45.543,172.936 45.297,172.886 45.297 C 172.836 45.297,172.667 45.543,172.511 45.845 M24.384 46.393 C 24.129 46.895,23.962 47.306,24.012 47.306 C 24.062 47.306,24.312 46.895,24.566 46.393 C 24.821 45.890,24.988 45.479,24.938 45.479 C 24.887 45.479,24.638 45.890,24.384 46.393 M246.951 48.128 C 246.965 49.484,247.050 50.640,247.141 50.696 C 247.236 50.755,247.306 49.711,247.306 48.230 C 247.306 46.577,247.238 45.662,247.116 45.662 C 246.994 45.662,246.935 46.530,246.951 48.128 M170.931 48.904 C 169.870 51.162,169.456 52.237,169.649 52.237 C 169.723 52.237,170.078 51.518,170.438 50.639 C 170.799 49.760,171.309 48.568,171.572 47.991 C 171.835 47.413,172.006 46.941,171.952 46.941 C 171.898 46.941,171.439 47.824,170.931 48.904 M23.108 48.994 C 22.726 49.824,22.288 50.790,22.135 51.142 C 21.982 51.493,21.824 51.842,21.785 51.918 C 21.746 51.993,21.801 52.055,21.907 52.055 C 22.013 52.055,22.100 51.969,22.100 51.864 C 22.100 51.759,22.509 50.757,23.009 49.637 C 23.509 48.517,23.892 47.575,23.860 47.544 C 23.829 47.512,23.490 48.165,23.108 48.994 M187.671 49.863 C 187.515 50.164,187.429 50.411,187.479 50.411 C 187.529 50.411,187.698 50.164,187.854 49.863 C 188.010 49.562,188.096 49.315,188.046 49.315 C 187.996 49.315,187.827 49.562,187.671 49.863 M39.351 50.795 C 38.992 51.508,38.728 52.122,38.764 52.158 C 38.801 52.195,39.134 51.611,39.505 50.861 C 39.876 50.111,40.140 49.498,40.092 49.498 C 40.044 49.498,39.711 50.081,39.351 50.795 M256.821 50.712 C 256.717 51.099,256.513 51.909,256.368 52.511 C 256.162 53.366,256.100 53.477,256.088 53.017 L 256.073 52.427 251.826 52.378 L 247.580 52.329 247.523 51.644 C 247.465 50.940,247.123 50.668,247.123 51.326 C 247.123 55.794,251.792 63.281,256.895 66.999 C 257.397 67.364,257.917 67.768,258.050 67.896 C 258.821 68.638,258.764 68.138,257.834 66.027 C 256.011 61.887,255.622 56.501,256.792 51.599 C 257.145 50.118,257.168 49.421,256.821 50.712 M21.307 53.188 C 21.208 53.566,21.285 53.854,21.438 53.683 C 21.624 53.477,21.738 52.785,21.586 52.785 C 21.491 52.785,21.365 52.967,21.307 53.188 M168.796 54.222 C 168.542 55.071,168.537 55.160,168.747 55.160 C 168.837 55.160,168.964 54.934,169.030 54.658 C 169.096 54.381,169.192 54.011,169.245 53.836 C 169.297 53.660,169.265 53.516,169.174 53.516 C 169.082 53.516,168.912 53.834,168.796 54.222 M20.570 55.608 C 20.219 57.006,20.209 57.169,20.478 57.169 C 20.592 57.169,20.640 57.008,20.586 56.804 C 20.534 56.603,20.568 56.391,20.661 56.333 C 20.755 56.276,20.816 56.132,20.797 56.014 C 20.779 55.896,20.859 55.568,20.975 55.285 C 21.229 54.670,21.243 54.429,21.027 54.429 C 20.939 54.429,20.733 54.960,20.570 55.608 M112.926 55.890 C 112.926 56.342,112.962 56.527,113.006 56.301 C 113.049 56.075,113.049 55.705,113.006 55.479 C 112.962 55.253,112.926 55.438,112.926 55.890 M168.402 55.616 C 168.402 55.767,168.484 55.890,168.584 55.890 C 168.685 55.890,168.767 55.767,168.767 55.616 C 168.767 55.466,168.685 55.342,168.584 55.342 C 168.484 55.342,168.402 55.466,168.402 55.616 M168.219 56.347 C 168.219 56.498,168.301 56.621,168.402 56.621 C 168.502 56.621,168.584 56.498,168.584 56.347 C 168.584 56.196,168.502 56.073,168.402 56.073 C 168.301 56.073,168.219 56.196,168.219 56.347 M168.037 57.169 C 168.037 57.510,168.085 57.559,168.256 57.388 C 168.426 57.218,168.426 57.120,168.256 56.950 C 168.085 56.779,168.037 56.828,168.037 57.169 M20.091 57.728 C 20.091 57.935,20.174 58.053,20.274 57.991 C 20.374 57.929,20.457 57.760,20.457 57.615 C 20.457 57.470,20.374 57.352,20.274 57.352 C 20.174 57.352,20.091 57.521,20.091 57.728 M167.854 58.093 C 167.854 58.300,167.936 58.418,168.037 58.356 C 168.137 58.294,168.219 58.125,168.219 57.980 C 168.219 57.835,168.137 57.717,168.037 57.717 C 167.936 57.717,167.854 57.886,167.854 58.093 M19.909 58.630 C 19.909 58.831,19.991 58.995,20.091 58.995 C 20.192 58.995,20.274 58.831,20.274 58.630 C 20.274 58.429,20.192 58.265,20.091 58.265 C 19.991 58.265,19.909 58.429,19.909 58.630 M167.671 59.006 C 167.671 59.213,167.753 59.331,167.854 59.269 C 167.954 59.207,168.037 59.038,168.037 58.893 C 168.037 58.749,167.954 58.630,167.854 58.630 C 167.753 58.630,167.671 58.799,167.671 59.006 M19.726 59.635 C 19.726 59.886,19.808 60.091,19.909 60.091 C 20.009 60.091,20.091 59.886,20.091 59.635 C 20.091 59.384,20.009 59.178,19.909 59.178 C 19.808 59.178,19.726 59.384,19.726 59.635 M112.875 65.708 C 112.874 69.299,112.824 74.498,112.765 77.260 C 112.693 80.566,112.721 82.439,112.846 82.740 C 112.981 83.063,113.040 79.678,113.048 71.187 C 113.054 64.582,113.018 59.178,112.968 59.178 C 112.918 59.178,112.876 62.116,112.875 65.708 M167.489 60.193 C 167.489 60.459,167.568 60.612,167.671 60.548 C 167.772 60.486,167.854 60.276,167.854 60.081 C 167.854 59.886,167.772 59.726,167.671 59.726 C 167.571 59.726,167.489 59.936,167.489 60.193 M19.543 60.913 C 19.543 61.307,19.617 61.528,19.726 61.461 C 19.826 61.399,19.909 61.153,19.909 60.913 C 19.909 60.674,19.826 60.427,19.726 60.365 C 19.617 60.298,19.543 60.519,19.543 60.913 M167.306 61.461 C 167.306 61.855,167.380 62.076,167.489 62.009 C 167.589 61.947,167.671 61.700,167.671 61.461 C 167.671 61.222,167.589 60.975,167.489 60.913 C 167.380 60.846,167.306 61.067,167.306 61.461 M19.361 62.546 C 19.361 63.004,19.443 63.379,19.543 63.379 C 19.644 63.379,19.726 63.055,19.726 62.659 C 19.726 62.263,19.644 61.889,19.543 61.826 C 19.432 61.758,19.361 62.038,19.361 62.546 M167.123 63.562 C 167.123 64.260,167.192 64.637,167.306 64.566 C 167.406 64.504,167.489 64.052,167.489 63.562 C 167.489 63.071,167.406 62.619,167.306 62.557 C 167.192 62.487,167.123 62.863,167.123 63.562 M19.178 66.575 C 19.178 68.097,19.248 69.041,19.361 69.041 C 19.473 69.041,19.543 68.097,19.543 66.575 C 19.543 65.053,19.473 64.110,19.361 64.110 C 19.248 64.110,19.178 65.053,19.178 66.575 M183.239 67.215 C 183.239 67.566,183.276 67.710,183.322 67.534 C 183.368 67.358,183.368 67.071,183.322 66.895 C 183.276 66.719,183.239 66.863,183.239 67.215 M167.123 69.589 C 167.123 70.198,167.204 70.685,167.306 70.685 C 167.407 70.685,167.489 70.198,167.489 69.589 C 167.489 68.980,167.407 68.493,167.306 68.493 C 167.204 68.493,167.123 68.980,167.123 69.589 M19.361 70.492 C 19.361 71.000,19.443 71.416,19.543 71.416 C 19.644 71.416,19.726 71.051,19.726 70.604 C 19.726 70.158,19.644 69.742,19.543 69.680 C 19.431 69.611,19.361 69.922,19.361 70.492 M35.310 70.868 C 35.310 71.521,35.343 71.788,35.383 71.461 C 35.424 71.135,35.424 70.600,35.383 70.274 C 35.343 69.947,35.310 70.215,35.310 70.868 M167.306 71.689 C 167.306 72.041,167.388 72.329,167.489 72.329 C 167.589 72.329,167.671 72.041,167.671 71.689 C 167.671 71.338,167.589 71.050,167.489 71.050 C 167.388 71.050,167.306 71.338,167.306 71.689 M19.543 72.237 C 19.543 72.589,19.626 72.877,19.726 72.877 C 19.826 72.877,19.909 72.589,19.909 72.237 C 19.909 71.886,19.826 71.598,19.726 71.598 C 19.626 71.598,19.543 71.886,19.543 72.237 M167.489 72.859 C 167.489 74.323,168.907 80.526,169.748 82.740 C 173.181 91.776,177.943 97.622,184.932 101.379 C 185.735 101.811,186.434 102.215,186.484 102.277 C 187.205 103.168,194.072 105.331,198.650 106.108 C 201.704 106.627,201.751 106.606,199.901 105.550 C 194.357 102.384,190.886 98.638,187.821 92.511 C 187.168 91.205,186.692 90.342,186.764 90.594 C 186.837 90.845,187.011 91.276,187.151 91.553 C 187.402 92.046,187.397 92.055,186.857 92.055 C 186.424 92.055,186.284 91.959,186.194 91.598 C 186.131 91.347,186.014 91.142,185.933 91.142 C 185.263 91.142,182.677 82.281,182.082 77.945 L 181.862 76.347 175.147 76.347 L 168.432 76.347 168.236 75.430 C 168.127 74.926,167.986 74.063,167.921 73.513 C 167.811 72.577,167.489 72.089,167.489 72.859 M183.249 73.516 C 183.250 74.018,183.285 74.202,183.327 73.924 C 183.369 73.647,183.368 73.236,183.325 73.011 C 183.282 72.787,183.247 73.014,183.249 73.516 M19.726 73.389 C 19.726 74.918,21.404 81.732,22.187 83.379 C 22.330 83.680,22.957 85.099,23.580 86.532 C 26.502 93.252,31.209 98.280,37.849 101.777 C 38.324 102.027,38.660 102.284,38.595 102.348 C 38.486 102.457,38.998 102.522,39.159 102.420 C 39.199 102.395,39.384 102.504,39.570 102.663 C 40.066 103.087,42.652 104.113,45.023 104.827 C 46.941 105.406,52.420 106.488,53.397 106.481 C 53.644 106.480,53.286 106.204,52.439 105.742 C 46.462 102.485,41.690 97.068,39.156 90.664 C 38.783 89.721,38.448 88.980,38.412 89.016 C 38.375 89.052,38.595 89.728,38.899 90.519 C 39.203 91.309,39.452 91.978,39.452 92.005 C 39.452 92.032,39.251 92.055,39.004 92.055 C 37.668 92.055,35.373 85.050,34.053 76.943 L 33.957 76.352 27.252 76.304 L 20.548 76.256 20.284 74.658 C 20.050 73.237,19.726 72.501,19.726 73.389 M35.480 74.612 C 35.482 75.014,35.519 75.157,35.563 74.929 C 35.607 74.702,35.605 74.373,35.559 74.199 C 35.514 74.024,35.478 74.210,35.480 74.612 M94.532 79.007 C 94.605 81.699,95.178 85.936,95.515 86.273 C 95.605 86.363,95.639 86.542,95.590 86.670 C 95.540 86.799,95.584 86.956,95.687 87.019 C 95.790 87.083,95.828 87.256,95.772 87.403 C 95.715 87.551,95.769 87.671,95.892 87.671 C 96.026 87.671,96.077 87.818,96.020 88.037 C 95.968 88.237,96.005 88.402,96.102 88.402 C 96.203 88.402,96.225 88.581,96.154 88.813 C 96.085 89.039,96.090 89.165,96.166 89.093 C 96.243 89.020,96.650 89.808,97.072 90.844 C 97.710 92.410,98.677 94.183,99.959 96.140 C 100.560 97.056,102.181 98.725,103.927 100.224 C 107.420 103.223,112.873 105.605,117.991 106.368 C 121.470 106.886,122.322 106.940,126.941 106.935 C 131.230 106.929,132.359 106.868,134.670 106.513 C 138.806 105.878,138.930 105.727,135.525 105.475 C 123.065 104.553,114.417 96.961,113.381 86.035 C 113.271 84.876,113.112 83.849,113.029 83.753 C 112.514 83.166,113.342 88.132,114.270 91.201 C 114.354 91.476,114.283 91.524,113.865 91.475 C 112.613 91.328,111.604 87.096,111.467 81.416 L 111.371 77.443 103.003 77.443 L 94.635 77.443 94.546 76.849 C 94.497 76.523,94.491 77.494,94.532 79.007 " stroke="none" fill="#983e5c" fill-rule="evenodd"></path><path id="path2" d="M136.804 27.850 C 136.804 28.347,137.010 28.748,137.721 29.630 C 138.782 30.946,140.042 33.462,140.197 34.575 C 140.256 34.997,140.347 35.466,140.399 35.616 C 140.451 35.767,140.546 36.260,140.611 36.712 C 140.775 37.873,140.753 81.115,140.586 82.557 C 140.288 85.140,140.113 86.005,139.540 87.724 C 137.778 93.011,134.221 95.834,128.562 96.437 C 120.698 97.276,115.215 93.420,113.497 85.845 L 113.270 84.840 113.372 86.119 C 113.915 92.915,118.340 99.425,124.538 102.543 C 127.960 104.265,134.752 105.840,138.427 105.762 C 139.723 105.735,144.694 103.717,146.713 102.399 L 147.581 101.832 147.535 64.569 L 147.489 27.306 142.146 27.258 L 136.804 27.209 136.804 27.850 M353.973 27.831 C 353.973 28.310,354.202 28.726,355.006 29.703 C 357.746 33.032,357.808 33.449,357.808 48.431 L 357.808 60.822 342.098 60.822 L 326.387 60.822 326.436 66.530 L 326.484 72.237 342.146 72.284 L 357.808 72.331 357.808 84.555 C 357.808 99.622,357.702 100.311,354.866 103.585 C 354.209 104.343,353.973 104.766,353.973 105.185 L 353.973 105.753 361.826 105.753 L 369.679 105.753 369.725 66.484 L 369.772 27.215 361.872 27.215 L 353.973 27.215 353.973 27.831 M290.304 31.233 C 290.304 33.091,290.331 33.852,290.364 32.922 C 290.398 31.993,290.398 30.473,290.364 29.543 C 290.331 28.614,290.304 29.374,290.304 31.233 M227.845 34.977 C 227.845 38.795,227.870 40.382,227.899 38.505 C 227.929 36.628,227.929 33.505,227.899 31.565 C 227.870 29.624,227.845 31.160,227.845 34.977 M290.281 37.717 C 290.282 38.219,290.317 38.403,290.359 38.125 C 290.401 37.848,290.400 37.437,290.357 37.212 C 290.314 36.987,290.279 37.215,290.281 37.717 M52.323 38.602 C 39.244 43.466,32.729 61.018,36.449 81.370 C 37.491 87.064,40.628 95.069,42.499 96.802 C 42.663 96.953,42.614 96.811,42.390 96.484 L 41.984 95.890 64.625 95.890 L 87.266 95.890 88.191 93.288 C 88.700 91.856,89.418 89.863,89.788 88.858 C 90.742 86.266,90.754 86.120,90.051 85.756 C 89.497 85.470,88.423 86.009,87.671 86.951 C 87.452 87.227,83.994 89.700,82.831 90.414 C 81.029 91.521,76.685 93.520,75.525 93.777 C 75.425 93.799,74.798 93.990,74.132 94.202 C 73.466 94.413,72.768 94.561,72.580 94.531 C 72.391 94.501,72.138 94.555,72.017 94.651 C 71.896 94.747,71.707 94.771,71.598 94.703 C 71.489 94.636,71.300 94.661,71.179 94.759 C 70.564 95.258,64.633 95.468,62.192 95.078 C 61.187 94.917,60.180 94.787,59.954 94.788 C 59.728 94.789,59.543 94.714,59.543 94.620 C 59.543 94.527,59.366 94.484,59.149 94.526 C 58.135 94.721,52.974 92.428,50.778 90.806 C 43.621 85.520,39.934 76.457,39.916 64.110 C 39.898 51.414,44.152 42.754,52.304 38.888 C 53.968 38.099,53.976 37.988,52.323 38.602 M199.716 38.792 C 186.534 44.192,180.340 61.969,184.498 82.466 C 186.509 92.376,192.246 101.522,198.443 104.696 C 199.017 104.990,198.567 104.621,197.169 103.652 C 194.955 102.119,189.954 96.819,189.954 96.006 C 189.954 95.943,200.092 95.890,212.482 95.890 L 235.010 95.890 235.245 95.388 C 235.374 95.112,235.833 93.858,236.266 92.603 C 236.699 91.347,237.384 89.399,237.789 88.273 L 238.526 86.226 238.002 85.853 C 237.311 85.361,237.495 85.282,235.499 86.934 C 231.939 89.883,226.366 93.020,223.288 93.809 C 222.715 93.956,222.577 94.000,222.263 94.137 C 222.101 94.208,221.731 94.297,221.441 94.335 C 221.151 94.373,220.913 94.416,220.913 94.431 C 220.913 94.491,220.146 94.636,219.635 94.674 C 219.333 94.696,218.998 94.769,218.889 94.837 C 217.879 95.468,209.087 95.400,208.273 94.755 C 208.152 94.659,207.967 94.633,207.862 94.698 C 207.757 94.763,207.569 94.753,207.445 94.676 C 207.320 94.599,206.941 94.513,206.602 94.486 C 205.774 94.418,202.170 92.961,200.514 92.025 C 192.327 87.398,187.699 77.286,187.696 64.018 C 187.694 51.516,192.298 42.325,200.329 38.800 C 202.137 38.007,201.649 38.000,199.716 38.792 M266.393 39.051 C 257.215 44.128,253.430 56.062,257.837 66.027 C 258.193 66.831,258.525 67.670,258.577 67.893 C 258.677 68.328,261.102 69.982,264.438 71.892 C 265.473 72.484,266.541 73.102,266.813 73.266 C 267.084 73.430,268.539 74.284,270.046 75.165 C 278.501 80.107,281.177 83.313,280.719 87.953 C 280.374 91.452,276.958 94.196,272.511 94.546 C 270.669 94.691,265.753 94.743,265.753 94.618 C 265.753 94.550,265.376 94.488,264.915 94.481 C 263.089 94.452,259.209 93.152,255.935 91.473 C 252.306 89.611,249.332 87.220,247.123 84.388 C 246.176 83.175,246.083 83.106,245.502 83.186 C 244.652 83.305,244.609 83.415,244.290 86.301 C 244.256 86.603,244.212 86.849,244.192 86.849 C 244.140 86.849,244.087 87.322,243.934 89.118 C 243.862 89.964,243.772 90.815,243.735 91.009 C 243.697 91.203,243.622 91.703,243.568 92.119 C 243.514 92.536,243.406 93.329,243.327 93.881 C 243.248 94.434,243.187 95.091,243.190 95.342 L 243.196 95.799 270.411 95.837 L 297.626 95.876 298.011 95.269 C 301.002 90.565,302.048 82.080,300.356 76.241 C 298.524 69.919,293.781 64.870,284.860 59.746 C 283.966 59.233,283.176 58.813,283.103 58.813 C 283.031 58.813,282.776 58.661,282.536 58.474 C 282.296 58.288,280.099 57.095,277.653 55.822 C 269.573 51.616,266.804 49.547,265.365 46.640 C 264.149 44.184,264.573 41.517,266.483 39.606 C 267.690 38.400,267.680 38.339,266.393 39.051 M98.817 94.612 C 99.203 95.357,99.957 96.451,100.032 96.376 C 100.070 96.338,99.804 95.864,99.440 95.322 C 98.677 94.187,98.481 93.963,98.817 94.612 M100.639 97.260 C 101.430 98.076,101.527 98.076,100.875 97.260 C 100.595 96.909,100.288 96.621,100.192 96.621 C 100.097 96.621,100.298 96.909,100.639 97.260 M42.868 97.397 C 44.752 99.890,46.881 102.079,48.652 103.345 C 49.962 104.282,49.652 103.932,48.061 102.679 C 46.521 101.466,45.331 100.256,43.809 98.358 C 43.285 97.704,42.820 97.169,42.776 97.169 C 42.731 97.169,42.773 97.272,42.868 97.397 M101.826 98.623 C 102.128 98.947,102.621 99.382,102.922 99.590 C 103.392 99.914,103.366 99.857,102.740 99.193 C 102.338 98.767,101.845 98.332,101.644 98.227 C 101.391 98.094,101.448 98.217,101.826 98.623 M106.486 102.244 C 106.486 102.316,106.816 102.553,107.218 102.771 C 107.620 102.990,107.908 103.101,107.857 103.018 C 107.716 102.790,106.484 102.094,106.486 102.244 M198.995 104.982 C 199.096 105.086,199.753 105.480,200.457 105.857 C 201.160 106.234,201.653 106.460,201.553 106.359 C 201.303 106.109,198.766 104.743,198.995 104.982 M51.689 105.292 C 51.689 105.342,52.183 105.632,52.785 105.936 C 53.388 106.240,53.881 106.448,53.881 106.398 C 53.881 106.348,53.388 106.058,52.785 105.753 C 52.183 105.449,51.689 105.241,51.689 105.292 " stroke="none" fill="#345267" fill-rule="evenodd"></path><path id="path3" d="M147.535 64.475 C 147.561 84.968,147.628 101.735,147.685 101.735 C 147.964 101.735,150.320 99.891,151.288 98.914 C 154.097 96.082,155.709 93.320,157.104 88.950 L 157.717 87.032 157.765 57.242 L 157.813 27.451 156.413 27.333 C 155.643 27.268,153.320 27.215,151.251 27.215 L 147.489 27.215 147.535 64.475 M369.802 27.336 C 369.735 27.403,369.680 45.075,369.680 66.606 L 369.680 105.753 373.501 105.753 C 378.304 105.753,377.900 105.941,377.900 103.713 C 377.900 101.945,377.769 101.396,377.218 100.845 C 377.024 100.651,377.013 100.553,377.176 100.452 C 377.295 100.378,377.315 100.288,377.220 100.250 C 376.220 99.860,375.720 37.971,376.689 34.521 C 376.872 33.868,377.019 33.108,377.016 32.833 C 377.013 32.558,377.110 32.271,377.231 32.194 C 377.701 31.896,377.900 30.985,377.900 29.124 L 377.900 27.215 373.912 27.215 C 371.718 27.215,369.869 27.269,369.802 27.336 M268.174 94.743 C 268.450 94.785,268.902 94.785,269.178 94.743 C 269.454 94.701,269.228 94.667,268.676 94.667 C 268.123 94.667,267.897 94.701,268.174 94.743 M243.022 96.198 C 242.754 97.263,242.696 99.727,242.932 100.011 C 243.167 100.295,246.933 102.166,248.219 102.639 C 248.571 102.769,249.208 103.029,249.635 103.219 C 250.062 103.409,250.719 103.613,251.096 103.672 C 251.473 103.732,251.914 103.852,252.076 103.939 C 252.239 104.026,252.428 104.040,252.497 103.971 C 252.566 103.903,252.691 103.956,252.774 104.090 C 253.136 104.677,284.979 104.844,286.210 104.266 C 286.798 103.989,287.891 103.689,288.131 103.737 C 288.187 103.748,288.358 103.631,288.512 103.477 C 288.667 103.323,289.013 103.145,289.282 103.082 C 291.081 102.662,297.534 97.121,297.534 95.997 C 297.534 95.940,285.291 95.872,270.328 95.846 L 243.122 95.799 243.022 96.198 M42.393 96.484 C 44.211 99.122,46.921 101.934,49.259 103.607 L 50.726 104.658 65.101 104.658 C 74.109 104.658,79.601 104.591,79.810 104.479 C 79.993 104.381,80.437 104.264,80.796 104.220 C 81.155 104.175,81.548 104.078,81.669 104.003 C 81.789 103.928,82.059 103.858,82.268 103.846 C 82.560 103.830,84.620 103.102,84.888 102.920 C 84.942 102.884,86.652 97.892,87.030 96.667 L 87.270 95.890 64.627 95.890 L 41.984 95.890 42.393 96.484 M189.954 96.006 C 189.954 96.844,195.122 102.283,197.356 103.797 L 198.640 104.666 212.927 104.660 C 225.681 104.654,227.308 104.621,228.082 104.354 C 228.559 104.189,229.402 103.951,229.954 103.824 C 232.444 103.253,232.676 103.086,233.238 101.461 C 234.737 97.133,235.067 96.152,235.068 96.027 C 235.068 95.952,224.918 95.890,212.511 95.890 C 200.105 95.890,189.954 95.943,189.954 96.006 M310.948 123.836 C 310.948 126.699,310.973 127.870,311.004 126.438 C 311.035 125.007,311.035 122.664,311.004 121.233 C 310.973 119.801,310.948 120.973,310.948 123.836 M183.782 145.889 C 184.456 145.924,185.606 145.924,186.339 145.889 C 187.072 145.854,186.521 145.826,185.114 145.825 C 183.708 145.825,183.108 145.854,183.782 145.889 M322.149 145.886 C 322.478 145.926,322.971 145.926,323.245 145.884 C 323.520 145.842,323.251 145.809,322.648 145.810 C 322.046 145.811,321.821 145.845,322.149 145.886 M349.452 145.884 C 349.728 145.926,350.180 145.926,350.457 145.884 C 350.733 145.842,350.507 145.808,349.954 145.808 C 349.402 145.808,349.176 145.842,349.452 145.884 " stroke="none" fill="#185474" fill-rule="evenodd"></path><path id="path4" d="M365.982 27.168 L 377.900 27.217 377.900 29.125 C 377.900 30.985,377.701 31.896,377.231 32.194 C 377.110 32.271,377.019 32.599,377.029 32.925 L 377.047 33.516 377.310 32.877 C 377.454 32.525,377.634 32.196,377.710 32.146 C 377.786 32.096,377.983 31.793,378.147 31.472 C 378.311 31.152,378.861 30.340,379.369 29.669 C 380.146 28.643,380.285 28.342,380.238 27.786 L 380.183 27.123 367.123 27.121 L 354.064 27.119 365.982 27.168 M156.851 27.349 L 157.813 27.416 157.765 57.224 L 157.717 87.032 157.105 88.950 C 156.769 90.005,156.293 91.351,156.049 91.943 C 155.431 93.440,155.621 93.419,156.316 91.913 C 157.116 90.176,157.565 88.812,158.103 86.484 C 159.069 82.303,159.072 82.235,159.083 59.570 C 159.089 47.156,159.167 37.791,159.273 36.771 C 159.553 34.073,160.775 30.980,162.000 29.871 C 162.206 29.685,162.374 29.423,162.374 29.288 C 162.374 29.154,162.539 28.942,162.740 28.816 C 163.000 28.654,163.105 28.390,163.105 27.901 L 163.105 27.215 159.498 27.248 C 157.514 27.267,156.323 27.312,156.851 27.349 M267.215 49.224 C 267.555 49.575,267.875 49.863,267.926 49.863 C 267.976 49.863,267.738 49.575,267.397 49.224 C 267.056 48.872,266.737 48.584,266.686 48.584 C 266.636 48.584,266.874 48.872,267.215 49.224 M248.676 86.210 C 249.171 86.712,249.616 87.123,249.667 87.123 C 249.717 87.123,249.353 86.712,248.858 86.210 C 248.364 85.708,247.918 85.297,247.868 85.297 C 247.817 85.297,248.181 85.708,248.676 86.210 M193.786 86.022 C 193.998 86.320,194.266 86.622,194.380 86.692 C 194.494 86.763,194.357 86.519,194.075 86.150 C 193.465 85.350,193.235 85.248,193.786 86.022 M235.068 87.146 C 234.432 87.704,234.432 87.704,235.017 87.315 C 235.341 87.100,235.654 86.845,235.713 86.749 C 235.889 86.464,235.743 86.554,235.068 87.146 M243.695 90.228 C 243.695 90.580,243.733 90.724,243.779 90.548 C 243.825 90.372,243.825 90.084,243.779 89.909 C 243.733 89.733,243.695 89.877,243.695 90.228 M136.156 93.196 L 135.434 93.973 136.210 93.251 C 136.932 92.579,137.070 92.420,136.932 92.420 C 136.902 92.420,136.553 92.769,136.156 93.196 M57.169 94.045 C 57.320 94.137,57.772 94.261,58.174 94.320 C 58.691 94.395,58.771 94.382,58.447 94.275 C 57.609 93.996,56.875 93.864,57.169 94.045 M205.388 94.162 C 205.689 94.300,206.100 94.411,206.301 94.409 C 206.502 94.407,206.297 94.288,205.845 94.146 C 204.831 93.826,204.668 93.832,205.388 94.162 M73.379 94.195 C 73.103 94.237,72.877 94.341,72.877 94.427 C 72.877 94.512,73.185 94.498,73.562 94.395 C 74.679 94.090,74.605 94.009,73.379 94.195 M273.607 94.196 C 273.356 94.241,273.079 94.346,272.992 94.430 C 272.904 94.514,273.189 94.503,273.626 94.405 C 274.845 94.131,274.832 93.976,273.607 94.196 M296.949 96.849 C 296.419 97.556,296.208 97.900,296.305 97.900 C 296.344 97.900,296.642 97.530,296.967 97.078 C 297.640 96.140,297.626 95.948,296.949 96.849 M152.226 97.945 L 151.689 98.539 152.283 98.002 C 152.610 97.707,152.877 97.440,152.877 97.409 C 152.877 97.268,152.726 97.392,152.226 97.945 M242.588 99.217 C 242.562 99.942,242.622 100.113,242.968 100.294 C 243.362 100.501,243.366 100.495,243.073 100.164 C 242.904 99.973,242.733 99.489,242.693 99.087 L 242.618 98.356 242.588 99.217 M294.967 99.132 L 294.338 99.817 295.023 99.188 C 295.660 98.602,295.792 98.447,295.652 98.447 C 295.622 98.447,295.314 98.756,294.967 99.132 M148.950 100.929 L 148.402 101.400 148.995 101.007 C 149.322 100.791,149.589 100.579,149.589 100.536 C 149.589 100.399,149.512 100.446,148.950 100.929 M377.103 100.731 C 377.161 100.881,377.268 101.005,377.342 101.005 C 377.739 101.005,378.214 105.279,377.854 105.613 C 377.829 105.636,372.466 105.699,365.936 105.753 L 354.064 105.850 366.880 105.893 C 373.929 105.917,379.826 105.886,379.985 105.825 C 380.541 105.612,380.332 104.630,379.522 103.650 C 379.108 103.149,378.474 102.226,378.113 101.598 C 377.538 100.598,376.813 99.976,377.103 100.731 M247.196 102.370 C 247.831 102.859,253.585 104.841,254.615 104.926 C 254.768 104.939,254.981 105.003,255.089 105.070 C 255.372 105.245,259.447 106.046,262.009 106.430 C 265.588 106.966,276.318 106.909,279.543 106.337 C 283.253 105.679,288.219 104.189,288.219 103.734 C 288.219 103.576,286.693 104.000,286.045 104.338 C 285.704 104.516,282.165 104.564,270.064 104.558 C 254.208 104.549,253.037 104.517,252.774 104.090 C 252.691 103.956,252.566 103.903,252.497 103.971 C 252.428 104.040,252.239 104.026,252.076 103.939 C 251.914 103.852,251.473 103.732,251.096 103.672 C 250.719 103.613,250.062 103.409,249.635 103.220 C 248.064 102.525,246.846 102.101,247.196 102.370 M290.411 102.539 C 290.059 102.768,289.566 103.009,289.315 103.074 C 288.753 103.221,288.289 103.510,288.415 103.635 C 288.545 103.766,291.142 102.456,291.142 102.260 C 291.142 102.056,291.164 102.048,290.411 102.539 M84.932 102.756 C 84.932 102.950,82.833 103.807,82.268 103.843 C 82.059 103.856,81.789 103.928,81.669 104.003 C 81.548 104.078,81.155 104.175,80.796 104.220 C 80.437 104.264,79.993 104.381,79.810 104.479 C 79.601 104.591,74.113 104.662,65.172 104.668 L 50.868 104.679 52.374 105.439 C 53.203 105.858,53.881 106.297,53.881 106.416 C 53.881 107.099,68.559 106.971,73.242 106.247 C 78.891 105.373,85.685 103.341,85.058 102.714 C 84.988 102.644,84.932 102.663,84.932 102.756 M231.872 103.241 C 231.370 103.435,230.440 103.709,229.806 103.851 C 229.172 103.993,228.474 104.212,228.254 104.337 C 227.946 104.513,224.493 104.587,213.333 104.658 L 198.813 104.749 200.327 105.531 C 201.160 105.961,201.799 106.381,201.748 106.463 C 201.225 107.309,217.255 106.915,222.895 105.944 C 224.085 105.739,225.097 105.571,225.143 105.571 C 225.189 105.571,225.181 105.496,225.125 105.405 C 225.068 105.314,225.174 105.279,225.359 105.327 C 226.035 105.504,233.209 103.245,232.871 102.961 C 232.824 102.922,232.374 103.048,231.872 103.241 M144.840 103.470 C 144.388 103.712,144.083 103.914,144.163 103.919 C 144.356 103.930,145.753 103.212,145.753 103.101 C 145.753 102.980,145.761 102.977,144.840 103.470 M69.717 118.620 C 68.443 119.074,66.349 121.000,66.649 121.441 C 66.676 121.480,66.607 121.568,66.495 121.637 C 66.026 121.927,65.877 125.662,66.335 125.662 C 66.429 125.662,66.458 125.738,66.401 125.832 C 66.253 126.071,67.254 127.499,68.113 128.276 C 69.853 129.847,73.326 129.908,75.404 128.402 C 76.349 127.718,76.356 127.385,75.445 126.495 L 74.726 125.792 74.121 126.108 C 73.788 126.281,73.276 126.550,72.983 126.707 C 70.865 127.834,68.379 125.563,69.041 123.105 C 69.687 120.705,72.110 120.106,74.220 121.824 C 74.566 122.106,76.150 120.662,76.161 120.055 C 76.181 118.870,71.769 117.888,69.717 118.620 M133.948 118.697 C 129.494 120.350,129.082 126.733,133.295 128.807 C 138.210 131.226,143.335 127.146,141.814 122.025 C 140.971 119.186,137.073 117.537,133.948 118.697 M227.724 118.526 C 224.177 119.670,224.894 124.186,228.767 125.092 C 230.732 125.551,231.496 126.103,230.938 126.661 C 230.260 127.339,228.755 127.178,227.402 126.283 C 226.543 125.715,226.521 125.721,225.676 126.738 C 224.867 127.711,224.887 127.793,226.105 128.528 C 229.600 130.636,233.790 129.316,233.790 126.107 C 233.790 124.048,232.859 123.231,229.529 122.365 C 228.232 122.028,227.857 121.575,228.415 121.018 C 228.838 120.594,229.951 120.668,230.974 121.186 C 232.155 121.786,232.233 121.773,232.876 120.886 C 233.660 119.804,233.599 119.564,232.389 118.972 C 231.276 118.428,228.772 118.188,227.724 118.526 M258.882 118.492 C 258.693 118.620,258.131 119.907,255.445 126.373 C 254.145 129.503,254.129 129.343,255.752 129.277 L 257.074 129.224 257.533 128.079 L 257.991 126.935 260.067 126.984 L 262.142 127.032 262.610 128.174 L 263.078 129.315 264.416 129.315 C 266.053 129.315,266.035 129.462,264.766 126.452 C 264.223 125.164,263.250 122.836,262.604 121.279 L 261.428 118.447 260.258 118.400 C 259.614 118.374,258.995 118.416,258.882 118.492 M292.968 118.527 C 288.245 119.969,287.622 126.736,292.014 128.893 C 295.978 130.839,300.255 128.451,300.426 124.195 C 300.593 120.026,297.001 117.296,292.968 118.527 M79.817 123.927 L 79.817 129.315 83.927 129.315 L 88.037 129.315 88.037 128.128 L 88.037 126.941 85.297 126.941 L 82.557 126.941 82.557 126.027 L 82.557 125.114 84.932 125.114 L 87.306 125.114 87.306 123.836 L 87.306 122.557 84.932 122.557 L 82.557 122.557 82.557 121.735 L 82.557 120.913 85.297 120.913 L 88.037 120.913 88.037 119.726 L 88.037 118.539 83.927 118.539 L 79.817 118.539 79.817 123.927 M92.055 123.927 L 92.055 129.315 93.333 129.315 L 94.612 129.315 94.618 126.256 L 94.623 123.196 95.029 123.674 C 95.654 124.412,95.865 124.681,97.699 127.078 L 99.411 129.315 100.573 129.315 L 101.735 129.315 101.735 123.927 L 101.735 118.539 100.457 118.539 L 99.178 118.539 99.177 121.598 L 99.177 124.658 98.791 124.018 C 98.404 123.377,96.604 121.079,96.072 120.547 C 95.916 120.391,95.510 119.875,95.169 119.401 L 94.550 118.539 93.302 118.539 L 92.055 118.539 92.055 123.927 M105.388 119.726 L 105.388 120.913 106.941 120.913 L 108.493 120.913 108.493 125.114 L 108.493 129.315 109.863 129.315 L 111.233 129.315 111.233 125.114 L 111.233 120.913 112.785 120.913 L 114.338 120.913 114.338 119.726 L 114.338 118.539 109.863 118.539 L 105.388 118.539 105.388 119.726 M117.808 123.927 L 117.808 129.315 119.178 129.315 L 120.548 129.315 120.548 127.661 L 120.548 126.006 121.314 126.063 C 122.052 126.117,122.118 126.175,123.178 127.717 L 124.276 129.315 125.882 129.315 C 126.766 129.315,127.489 129.247,127.489 129.163 C 127.489 128.972,126.057 126.918,125.750 126.669 C 125.365 126.356,124.876 125.479,125.087 125.479 C 126.087 125.479,127.210 123.329,127.088 121.648 C 126.910 119.191,125.647 118.539,121.063 118.539 L 117.808 118.539 117.808 123.927 M152.362 122.603 L 152.420 126.667 152.927 127.529 C 154.176 129.653,158.230 130.221,160.252 128.555 C 161.608 127.437,161.724 126.984,161.795 122.511 L 161.857 118.539 160.580 118.539 L 159.304 118.539 159.237 121.963 C 159.153 126.308,158.889 126.941,157.157 126.941 C 155.261 126.941,154.888 126.079,154.887 121.689 L 154.886 118.539 153.595 118.539 L 152.304 118.539 152.362 122.603 M166.027 123.927 L 166.027 129.315 167.306 129.315 L 168.584 129.315 168.584 126.174 L 168.584 123.033 169.172 123.845 C 169.496 124.292,169.809 124.699,169.869 124.749 C 169.928 124.799,170.745 125.847,171.684 127.078 L 173.392 129.315 174.550 129.315 L 175.708 129.315 175.708 123.927 L 175.708 118.539 174.429 118.539 L 173.151 118.539 173.151 121.581 L 173.151 124.623 172.384 123.481 C 171.962 122.853,171.196 121.867,170.681 121.291 C 170.167 120.714,169.471 119.859,169.134 119.391 L 168.523 118.539 167.275 118.539 L 166.027 118.539 166.027 123.927 M180.091 123.927 L 180.091 129.315 181.461 129.315 L 182.831 129.315 182.831 123.927 L 182.831 118.539 181.461 118.539 L 180.091 118.539 180.091 123.927 M186.301 118.676 C 186.300 118.751,186.786 120.046,187.380 121.553 C 187.973 123.059,188.898 125.424,189.435 126.808 L 190.411 129.324 191.754 129.274 L 193.098 129.224 193.887 127.215 C 194.322 126.110,195.225 123.808,195.896 122.100 C 196.566 120.393,197.156 118.893,197.207 118.767 C 197.276 118.596,196.933 118.539,195.832 118.539 L 194.364 118.539 193.968 119.589 C 193.750 120.167,193.360 121.215,193.100 121.918 C 192.841 122.621,192.513 123.378,192.372 123.599 C 192.230 123.821,192.168 124.088,192.232 124.193 C 192.297 124.298,192.270 124.384,192.171 124.384 C 192.073 124.384,191.935 124.648,191.864 124.970 L 191.735 125.557 191.381 124.559 C 191.186 124.011,190.610 122.432,190.102 121.050 L 189.178 118.539 187.740 118.539 C 186.949 118.539,186.301 118.600,186.301 118.676 M200.731 123.927 L 200.731 129.315 204.840 129.315 L 208.950 129.315 208.950 128.128 L 208.950 126.941 206.119 126.941 L 203.288 126.941 203.288 126.027 L 203.288 125.114 205.753 125.114 L 208.219 125.114 208.219 123.836 L 208.219 122.557 205.753 122.557 L 203.288 122.557 203.288 121.735 L 203.288 120.913 206.119 120.913 L 208.950 120.913 208.950 119.726 L 208.950 118.539 204.840 118.539 L 200.731 118.539 200.731 123.927 M212.785 123.927 L 212.785 129.315 214.155 129.315 L 215.525 129.315 215.525 127.671 L 215.525 126.027 216.251 126.027 C 216.961 126.027,217.000 126.062,218.082 127.671 L 219.188 129.315 220.644 129.315 C 222.438 129.315,222.438 129.313,220.981 127.225 C 219.814 125.553,219.820 125.597,220.684 125.102 C 221.538 124.613,222.124 122.355,221.754 120.983 C 221.203 118.938,220.287 118.548,216.027 118.543 L 212.785 118.539 212.785 123.927 M237.808 123.927 L 237.808 129.315 239.087 129.315 L 240.365 129.315 240.365 123.927 L 240.365 118.539 239.087 118.539 L 237.808 118.539 237.808 123.927 M243.836 119.726 L 243.836 120.913 245.479 120.913 L 247.123 120.913 247.123 125.114 L 247.123 129.315 248.493 129.315 L 249.863 129.315 249.863 125.114 L 249.863 120.913 251.507 120.913 L 253.151 120.913 253.151 119.726 L 253.151 118.539 248.493 118.539 L 243.836 118.539 243.836 119.726 M269.224 123.916 L 269.224 129.315 270.594 129.315 L 271.963 129.315 271.963 127.671 L 271.963 126.027 272.661 126.027 C 273.355 126.027,274.214 126.913,275.449 128.904 C 275.680 129.277,275.846 129.315,277.213 129.315 C 279.042 129.315,279.034 129.372,277.530 127.215 C 276.492 125.726,276.382 125.493,276.676 125.400 C 278.190 124.919,278.911 121.802,277.906 120.085 C 277.147 118.791,276.621 118.639,272.648 118.573 L 269.224 118.517 269.224 123.916 M282.374 123.927 L 282.374 129.315 283.744 129.315 L 285.114 129.315 285.114 123.927 L 285.114 118.539 283.744 118.539 L 282.374 118.539 282.374 123.927 M310.959 123.944 L 310.959 129.350 314.064 129.273 C 319.174 129.148,320.872 127.904,321.060 124.150 C 321.261 120.169,319.188 118.551,313.881 118.543 L 310.959 118.539 310.959 123.944 M324.749 123.927 L 324.749 129.315 328.950 129.315 L 333.151 129.315 333.151 128.128 L 333.151 126.941 330.411 126.941 L 327.671 126.941 327.671 126.027 L 327.671 125.114 330.046 125.114 L 332.420 125.114 332.420 123.836 L 332.420 122.557 330.046 122.557 L 327.671 122.557 327.671 121.735 L 327.671 120.913 330.411 120.913 L 333.151 120.913 333.151 119.726 L 333.151 118.539 328.950 118.539 L 324.749 118.539 324.749 123.927 M137.717 121.255 C 139.370 122.454,139.592 124.736,138.192 126.136 C 136.722 127.607,134.646 127.150,133.562 125.119 C 133.143 124.334,133.003 123.105,133.333 123.105 C 133.434 123.105,133.516 122.985,133.516 122.837 C 133.516 121.371,136.387 120.289,137.717 121.255 M295.772 121.023 C 298.900 122.089,298.127 126.942,294.825 126.969 C 291.649 126.995,290.685 122.398,293.589 121.079 C 294.510 120.660,294.693 120.656,295.772 121.023 M123.720 121.292 C 124.983 122.285,124.035 123.470,121.977 123.470 L 120.548 123.470 120.548 122.192 L 120.548 120.913 121.893 120.913 C 122.978 120.913,123.332 120.987,123.720 121.292 M218.730 121.362 C 219.820 122.452,218.938 123.470,216.903 123.470 L 215.525 123.470 215.525 122.192 L 215.525 120.913 216.903 120.913 C 218.123 120.913,218.333 120.965,218.730 121.362 M275.366 121.316 C 276.430 122.379,275.430 123.460,273.379 123.466 L 271.963 123.470 271.963 122.173 L 271.963 120.876 273.510 120.940 C 274.659 120.988,275.135 121.084,275.366 121.316 M316.399 121.162 C 319.446 122.455,318.484 126.654,315.085 126.897 L 313.790 126.990 313.790 123.951 L 313.790 120.913 314.800 120.913 C 315.356 120.913,316.075 121.025,316.399 121.162 M260.923 123.881 L 261.171 124.566 260.083 124.566 C 259.238 124.566,258.995 124.505,258.995 124.292 C 258.995 124.142,259.063 124.018,259.144 124.018 C 259.226 124.018,259.485 123.557,259.718 122.993 L 260.143 121.968 260.409 122.582 C 260.555 122.920,260.786 123.505,260.923 123.881 M23.330 137.357 C 18.095 138.675,17.500 146.413,22.495 148.213 C 24.896 149.078,29.041 148.032,29.041 146.562 C 29.041 145.702,27.415 144.607,26.864 145.096 C 24.003 147.630,20.093 143.832,22.613 140.966 C 23.722 139.706,26.199 139.622,26.939 140.819 C 27.400 141.566,29.278 139.624,28.851 138.843 C 28.235 137.717,25.174 136.892,23.330 137.357 M69.763 137.406 C 68.624 137.729,67.709 138.327,67.192 139.086 C 66.953 139.437,66.692 139.724,66.611 139.725 C 66.530 139.725,66.290 140.116,66.078 140.594 C 65.447 142.010,65.640 145.571,66.346 145.571 C 66.455 145.571,66.495 145.621,66.434 145.682 C 66.317 145.799,66.339 145.833,67.221 146.888 C 68.924 148.924,73.111 149.172,75.176 147.358 C 75.954 146.675,75.952 146.545,75.146 145.604 C 74.342 144.665,73.411 144.752,72.651 145.836 C 72.577 145.941,72.516 145.956,72.514 145.868 C 72.513 145.780,72.409 145.787,72.283 145.883 C 71.981 146.113,70.685 146.177,70.685 145.962 C 70.685 145.869,70.483 145.742,70.237 145.680 C 69.990 145.619,69.587 145.301,69.341 144.976 C 67.341 142.325,69.889 138.750,72.694 140.273 C 74.346 141.170,74.123 141.177,75.002 140.206 C 75.945 139.164,75.944 139.168,75.282 138.507 C 74.256 137.484,71.459 136.926,69.763 137.406 M134.886 137.282 C 128.448 138.921,128.404 147.262,134.827 148.503 C 137.033 148.929,140.639 147.496,140.639 146.193 C 140.639 146.073,140.753 145.932,140.891 145.878 C 141.600 145.606,141.987 142.394,141.482 140.979 C 140.629 138.593,137.227 136.686,134.886 137.282 M149.358 137.357 C 144.062 138.690,143.473 146.351,148.523 148.223 C 150.880 149.097,155.068 148.021,155.068 146.542 C 155.068 145.671,153.335 144.562,152.864 145.130 C 151.702 146.530,148.362 145.960,148.317 144.353 C 148.313 144.236,148.208 144.106,148.082 144.064 C 147.552 143.887,147.807 142.053,148.481 141.202 C 149.731 139.624,151.193 139.517,153.097 140.863 C 153.439 141.105,154.008 140.693,154.738 139.674 C 155.724 138.298,151.997 136.692,149.358 137.357 M32.877 142.922 L 32.877 148.493 34.247 148.493 L 35.616 148.493 35.616 142.922 L 35.616 137.352 34.247 137.352 L 32.877 137.352 32.877 142.922 M40.000 142.922 L 40.000 148.493 44.201 148.493 L 48.402 148.493 48.402 147.325 C 48.402 145.880,48.532 145.936,45.191 145.936 L 42.557 145.936 42.557 145.023 L 42.557 144.110 45.114 144.110 L 47.671 144.110 47.671 142.922 L 47.671 141.735 45.114 141.735 L 42.557 141.735 42.557 140.822 L 42.557 139.909 45.388 139.909 L 48.219 139.909 48.219 138.630 L 48.219 137.352 44.110 137.352 L 40.000 137.352 40.000 142.922 M52.237 142.922 L 52.237 148.493 53.512 148.493 L 54.786 148.493 54.836 145.347 L 54.886 142.201 56.701 144.662 C 57.699 146.016,58.747 147.365,59.029 147.660 C 59.312 147.956,59.543 148.264,59.543 148.345 C 59.543 148.427,60.078 148.493,60.731 148.493 L 61.918 148.493 61.918 142.922 L 61.918 137.352 60.639 137.352 L 59.361 137.352 59.361 140.381 C 59.361 142.141,59.291 143.384,59.193 143.349 C 58.985 143.273,55.345 138.530,55.336 138.323 C 55.312 137.711,54.611 137.352,53.441 137.352 L 52.237 137.352 52.237 142.922 M79.452 142.915 L 79.452 148.493 80.916 148.493 L 82.380 148.493 82.331 142.968 L 82.283 137.443 80.868 137.390 L 79.452 137.336 79.452 142.915 M89.957 138.013 C 89.805 138.377,89.680 138.744,89.680 138.829 C 89.680 139.052,89.093 140.318,88.840 140.639 C 88.466 141.115,85.662 147.899,85.662 148.329 C 85.662 148.419,86.258 148.493,86.986 148.493 L 88.311 148.493 88.899 147.215 L 89.488 145.936 91.456 145.938 L 93.425 145.939 93.882 147.171 L 94.340 148.402 95.846 148.455 C 96.720 148.486,97.352 148.435,97.352 148.333 C 97.352 148.123,96.922 147.114,95.944 145.023 C 95.291 143.627,93.543 139.473,92.965 137.945 C 92.742 137.355,92.734 137.352,91.487 137.352 L 90.233 137.352 89.957 138.013 M101.988 137.631 C 100.357 138.346,99.642 140.714,100.535 142.441 C 100.866 143.081,101.898 143.637,103.470 144.024 C 105.602 144.548,106.255 145.110,105.479 145.753 C 105.216 145.972,103.427 146.124,103.333 145.936 C 103.212 145.692,101.210 144.804,101.031 144.915 C 100.653 145.149,99.694 146.684,99.782 146.915 C 100.461 148.683,106.168 149.038,107.644 147.403 C 109.637 145.197,108.451 142.664,104.956 141.661 C 103.287 141.183,102.831 140.944,102.831 140.548 C 102.831 139.762,104.361 139.660,105.730 140.354 C 106.930 140.962,106.900 140.968,107.561 139.938 C 108.345 138.717,108.302 138.563,107.003 137.914 C 105.724 137.275,103.133 137.129,101.988 137.631 M120.548 137.557 C 119.344 138.037,118.721 139.186,118.721 140.929 C 118.721 142.764,119.403 143.366,122.427 144.198 C 124.500 144.769,124.713 145.987,122.745 146.015 C 122.240 146.023,121.826 145.967,121.826 145.891 C 121.826 145.815,121.715 145.753,121.578 145.753 C 121.441 145.753,121.027 145.548,120.657 145.297 C 119.798 144.714,119.534 144.722,119.146 145.342 C 118.974 145.619,118.623 146.028,118.366 146.253 L 117.900 146.660 118.356 147.035 C 120.972 149.183,125.524 148.948,126.586 146.609 C 127.684 144.189,126.767 142.808,123.301 141.664 C 121.493 141.067,121.030 140.702,121.448 140.198 C 121.818 139.752,123.091 139.833,124.092 140.365 C 125.194 140.951,125.106 140.973,125.918 139.909 C 126.778 138.781,126.713 138.583,125.255 137.894 C 124.029 137.314,121.595 137.139,120.548 137.557 M158.904 142.922 L 158.904 148.493 160.183 148.493 L 161.461 148.493 161.461 142.922 L 161.461 137.352 160.183 137.352 L 158.904 137.352 158.904 142.922 M169.370 137.671 C 169.305 137.847,168.598 139.553,167.799 141.461 C 164.602 149.088,164.717 148.493,166.439 148.493 L 167.764 148.493 168.174 147.436 C 168.400 146.854,168.584 146.279,168.584 146.157 C 168.584 145.996,169.183 145.936,170.776 145.936 C 172.584 145.936,172.968 145.983,172.968 146.205 C 172.968 146.353,173.169 146.928,173.415 147.483 L 173.861 148.493 175.241 148.493 C 176.000 148.493,176.621 148.454,176.621 148.406 C 176.621 148.264,175.214 144.790,173.883 141.644 C 173.202 140.037,172.537 138.413,172.405 138.037 L 172.164 137.352 170.825 137.352 C 169.716 137.352,169.466 137.406,169.370 137.671 M179.909 142.922 L 179.909 148.493 183.935 148.493 L 187.961 148.493 187.908 147.195 L 187.854 145.897 185.251 145.925 L 182.648 145.953 182.648 141.652 L 182.648 137.352 181.279 137.352 L 179.909 137.352 179.909 142.922 M191.416 142.922 L 191.416 148.493 195.616 148.493 L 199.817 148.493 199.817 147.215 L 199.817 145.936 196.986 145.936 L 194.155 145.936 194.155 145.023 L 194.155 144.110 196.530 144.110 L 198.904 144.110 198.904 142.922 L 198.904 141.735 196.530 141.735 L 194.155 141.735 194.155 140.822 L 194.155 139.909 196.895 139.909 L 199.635 139.909 199.635 138.630 L 199.635 137.352 195.525 137.352 L 191.416 137.352 191.416 142.922 M204.983 137.723 C 203.887 138.280,203.196 139.695,203.339 141.087 C 203.518 142.820,204.141 143.356,206.849 144.107 C 208.284 144.505,208.950 144.878,208.950 145.285 C 208.950 146.200,207.097 146.266,205.572 145.405 C 204.336 144.707,204.204 144.739,203.396 145.933 C 202.468 147.302,204.049 148.351,207.196 148.456 C 210.259 148.558,211.507 147.607,211.507 145.169 C 211.507 143.175,210.674 142.280,208.311 141.735 C 206.898 141.409,206.027 140.989,206.027 140.634 C 206.027 139.745,207.456 139.608,208.930 140.355 C 210.107 140.952,210.029 140.972,210.765 139.887 C 211.499 138.805,211.440 138.594,210.212 137.904 C 209.040 137.247,206.118 137.145,204.983 137.723 M220.822 137.541 C 220.822 137.646,221.299 138.447,221.882 139.322 C 222.465 140.197,223.410 141.662,223.983 142.577 L 225.023 144.240 225.023 146.367 L 225.023 148.493 226.301 148.493 L 227.580 148.493 227.580 146.372 L 227.580 144.251 228.407 142.923 C 228.862 142.193,229.403 141.402,229.610 141.164 C 230.112 140.584,231.781 137.810,231.781 137.555 C 231.781 137.325,229.086 137.269,228.743 137.491 C 228.629 137.565,228.064 138.447,227.487 139.452 C 226.911 140.457,226.417 141.304,226.390 141.335 C 226.335 141.398,224.931 139.067,224.400 138.032 L 224.052 137.352 222.437 137.352 C 221.442 137.352,220.822 137.424,220.822 137.541 M241.461 142.922 L 241.461 148.493 242.831 148.493 L 244.201 148.493 244.201 146.301 L 244.201 144.110 246.210 144.110 L 248.219 144.110 248.219 146.301 L 248.219 148.493 249.498 148.493 L 250.776 148.493 250.776 142.922 L 250.776 137.352 249.498 137.352 L 248.219 137.352 248.219 139.543 L 248.219 141.735 246.210 141.735 L 244.201 141.735 244.201 139.543 L 244.201 137.352 242.831 137.352 L 241.461 137.352 241.461 142.922 M254.977 141.063 C 254.977 147.237,255.791 148.518,259.726 148.542 C 263.628 148.566,264.475 147.232,264.475 141.063 L 264.475 137.352 263.210 137.352 L 261.946 137.352 261.881 140.868 C 261.800 145.305,261.420 146.120,259.486 146.006 C 257.920 145.913,257.537 144.830,257.535 140.502 L 257.534 137.352 256.256 137.352 L 254.977 137.352 254.977 141.063 M268.676 142.922 L 268.676 148.493 269.950 148.493 L 271.224 148.493 271.274 145.347 L 271.324 142.201 272.511 144.059 C 274.011 146.405,274.024 146.405,275.570 144.082 L 276.804 142.229 276.854 145.361 L 276.904 148.493 278.178 148.493 L 279.452 148.493 279.452 142.922 L 279.452 137.352 278.090 137.352 L 276.728 137.352 276.233 138.219 C 275.503 139.501,274.125 141.735,274.065 141.735 C 274.037 141.735,273.538 140.934,272.957 139.954 C 272.376 138.975,271.790 137.989,271.654 137.763 C 271.433 137.395,271.263 137.352,270.041 137.352 L 268.676 137.352 268.676 142.922 M287.207 137.763 C 287.140 137.989,286.346 139.941,285.444 142.100 C 282.952 148.067,282.922 148.140,282.922 148.323 C 282.922 148.416,283.532 148.493,284.276 148.493 L 285.630 148.493 286.131 147.215 L 286.633 145.936 288.676 145.936 L 290.719 145.936 291.220 147.215 L 291.722 148.493 293.076 148.493 C 293.820 148.493,294.429 148.419,294.429 148.329 C 294.429 148.067,293.283 145.174,291.961 142.100 C 291.292 140.543,290.581 138.838,290.382 138.311 L 290.019 137.352 288.675 137.352 C 287.439 137.352,287.321 137.385,287.207 137.763 M297.900 142.922 L 297.900 148.493 299.174 148.493 L 300.448 148.493 300.498 145.372 L 300.548 142.251 301.805 143.911 C 302.496 144.824,303.147 145.571,303.251 145.571 C 303.355 145.571,303.389 145.622,303.327 145.684 C 303.265 145.746,303.313 145.899,303.433 146.025 C 303.554 146.150,304.023 146.754,304.475 147.366 L 305.297 148.478 306.438 148.486 L 307.580 148.493 307.580 142.922 L 307.580 137.352 306.301 137.352 L 305.023 137.352 305.017 140.411 C 305.012 143.162,304.984 143.434,304.739 143.105 C 304.590 142.904,304.196 142.452,303.865 142.100 C 303.080 141.268,301.005 138.516,301.005 138.307 C 301.005 137.776,300.127 137.352,299.029 137.352 L 297.900 137.352 297.900 142.922 M311.963 142.922 L 311.963 148.493 313.333 148.493 L 314.703 148.493 314.703 142.922 L 314.703 137.352 313.333 137.352 L 311.963 137.352 311.963 142.922 M319.087 142.925 L 319.087 148.537 321.963 148.452 C 327.122 148.299,329.037 146.803,329.040 142.922 C 329.043 139.065,327.096 137.545,321.963 137.397 L 319.087 137.313 319.087 142.925 M335.540 138.037 C 335.127 139.209,333.316 143.441,332.969 144.044 C 332.673 144.558,331.142 148.232,331.142 148.428 C 331.142 148.472,331.813 148.484,332.634 148.455 L 334.126 148.402 334.579 147.163 L 335.032 145.925 337.036 145.976 L 339.039 146.027 339.495 147.260 L 339.950 148.493 341.391 148.493 C 342.421 148.493,342.831 148.428,342.831 148.265 C 342.831 147.960,341.034 143.514,340.860 143.387 C 340.737 143.298,338.920 139.112,338.458 137.854 C 338.282 137.373,338.221 137.352,337.028 137.352 L 335.781 137.352 335.540 138.037 M346.119 142.944 L 346.119 148.536 349.115 148.464 L 352.112 148.391 353.355 147.757 C 354.179 147.337,354.738 146.908,355.013 146.484 C 355.241 146.132,355.525 145.731,355.643 145.592 C 356.554 144.525,356.554 141.182,355.643 140.236 C 355.478 140.064,355.096 139.596,354.795 139.195 C 353.754 137.810,352.254 137.363,348.630 137.356 L 346.119 137.352 346.119 142.944 M360.000 142.922 L 360.000 148.493 364.201 148.493 L 368.402 148.493 368.402 147.215 L 368.402 145.936 365.571 145.936 L 362.740 145.936 362.740 145.023 L 362.740 144.110 365.205 144.110 L 367.671 144.110 367.671 142.922 L 367.671 141.735 365.205 141.735 L 362.740 141.735 362.740 140.822 L 362.740 139.909 365.571 139.909 L 368.402 139.909 368.402 138.630 L 368.402 137.352 364.201 137.352 L 360.000 137.352 360.000 142.922 M373.631 137.766 C 371.757 138.846,371.486 142.148,373.185 143.196 C 373.518 143.401,374.486 143.783,375.336 144.045 C 377.218 144.624,377.534 144.810,377.534 145.337 C 377.534 146.175,375.724 146.244,374.374 145.458 C 373.024 144.672,372.971 144.677,372.273 145.667 C 371.385 146.927,371.924 147.686,374.148 148.308 C 377.649 149.289,380.183 147.936,380.183 145.087 C 380.183 142.878,379.760 142.509,376.032 141.471 C 374.849 141.141,374.428 140.667,374.899 140.195 C 375.400 139.695,376.368 139.765,377.689 140.399 C 378.799 140.930,378.883 140.893,379.698 139.522 L 380.091 138.862 379.609 138.380 C 378.553 137.325,375.024 136.962,373.631 137.766 M137.059 140.163 C 139.046 140.993,139.378 143.737,137.683 145.307 C 135.154 147.646,131.311 143.684,133.571 141.069 C 134.474 140.024,135.863 139.663,137.059 140.163 M323.872 140.116 C 327.756 140.949,326.937 145.716,322.877 145.910 L 321.644 145.969 321.644 142.939 L 321.644 139.909 322.274 139.909 C 322.621 139.909,323.340 140.002,323.872 140.116 M351.947 140.426 C 354.688 141.849,353.402 145.665,350.101 145.903 L 349.041 145.980 349.041 142.918 L 349.041 139.857 350.173 139.975 C 350.796 140.040,351.594 140.243,351.947 140.426 M171.872 143.511 C 171.872 143.539,171.379 143.562,170.776 143.562 C 170.174 143.562,169.680 143.523,169.680 143.477 C 169.680 143.328,170.315 142.013,170.432 141.918 C 170.494 141.868,170.606 141.631,170.680 141.392 C 170.792 141.033,171.872 142.953,171.872 143.511 M91.846 141.993 C 92.559 143.605,92.570 143.562,91.444 143.562 L 90.444 143.562 90.915 142.374 C 91.474 140.964,91.404 140.993,91.846 141.993 M289.234 142.197 C 289.832 143.550,289.827 143.562,288.676 143.562 C 287.518 143.562,287.546 143.624,288.081 142.245 C 288.587 140.940,288.676 140.936,289.234 142.197 M337.595 142.420 L 338.057 143.562 337.053 143.562 C 335.921 143.562,335.934 143.614,336.652 141.938 C 337.056 140.995,337.008 140.971,337.595 142.420 " stroke="none" fill="#144c6c" fill-rule="evenodd"></path></g></svg>